<mxfile host="app.diagrams.net" modified="2023-06-27T09:07:24.702Z" agent="Mozilla/5.0 (Macintosh; Intel Mac OS X 10_15_7) AppleWebKit/537.36 (KHTML, like Gecko) Chrome/114.0.0.0 Safari/537.36" etag="BBDKy2B1DKWFPkJX2eX2" version="21.3.7" type="github">
  <diagram name="第 1 页" id="NNdgP6zgxYeAQKNFcuAu">
    <mxGraphModel dx="584" dy="739" grid="1" gridSize="10" guides="1" tooltips="1" connect="1" arrows="1" fold="1" page="0" pageScale="1" pageWidth="827" pageHeight="1169" math="0" shadow="0">
      <root>
        <mxCell id="0" />
        <mxCell id="1" parent="0" />
        <mxCell id="6_kh7ZPEecX23Z2gqXca-1" value="" style="shape=image;verticalLabelPosition=bottom;labelBackgroundColor=default;verticalAlign=top;aspect=fixed;imageAspect=0;image=data:image/svg+xml,PHN2ZyB4bWxuczp4bGluaz0iaHR0cDovL3d3dy53My5vcmcvMTk5OS94bGluayIgeG1sbnM9Imh0dHA6Ly93d3cudzMub3JnLzIwMDAvc3ZnIiBoZWlnaHQ9IjIwMCIgd2lkdGg9IjIwMCIgdmVyc2lvbj0iMS4xIiB2aWV3Qm94PSIwIDAgMTAyNCAxMDI0IiBjbGFzcz0iaWNvbiI+PHBhdGggZmlsbD0iIzM4QkZENCIgZD0iTTQ5Ni43NTcwMjkgNTQ5LjAzOTU0M2MtMTUwLjU1NzI1NyAwLTI3Mi44ODEzNzEtMTIzLjA1NTU0My0yNzIuODgxMzcyLTI3NC41MTk3NzJDMjIzLjg3NTY1NyAxMjMuMDU1NTQzIDM0Ni4xOTk3NzEgMCA0OTYuNzU3MDI5IDBzMjcyLjg4MTM3MSAxMjMuMDU1NTQzIDI3Mi44ODEzNzEgMjc0LjUxOTc3MWMwIDE1MS40NjQyMjktMTIyLjMyNDExNCAyNzQuNTE5NzcxLTI3Mi44ODEzNzEgMjc0LjUxOTc3MnogbTAtNDc4LjA2MTcxNGMtMTEyLjkzMjU3MSAwLTIwMi4zMTMxNDMgODkuOTM2NDU3LTIwMi4zMTMxNDMgMjAzLjU0MTk0MnM4OS4zODA1NzEgMjAzLjUxMjY4NiAyMDIuMzEzMTQzIDIwMy41MTI2ODYgMjAyLjMxMzE0My04OS45MDcyIDIwMi4zMTMxNDItMjAzLjUxMjY4NmMwLTExMy42MDU0ODYtODkuNDA5ODI5LTIwMy41MTI2ODYtMjAyLjMxMzE0Mi0yMDMuNTEyNjg1eiIvPjxwYXRoIGZpbGw9IiMzOEJGRDQiIGQ9Ik05NzYuNjMyNjg2IDEwMDguMTQyNjI5Yy0xOC44MTIzNDMgMC0zNy42MjQ2ODYtMTQuMTg5NzE0LTM3LjYyNDY4Ni0zNy44NTg3NDN2LTcxLjAwNzA4NmMwLTE5NC4wNjI2MjktMTU5Ljk3ODA1Ny0zNTAuMjM3MjU3LTM0OC4xNi0zNTAuMjM3MjU3aC0xMzEuNzQ0OTE0Yy0xOTIuODkyMzQzIDAtMzQ4LjE2IDE2MC45MTQyODYtMzQ4LjE2IDM1NC45NzY5MTR2NzEuMDA3MDg2YzAgMTguOTI5MzcxLTE0LjEwMTk0MyAzNy44NTg3NDMtMzcuNjI0Njg2IDM3Ljg1ODc0M1MzNS42OTM3MTQgOTk4LjY2MzMxNCAzNS42OTM3MTQgOTc1LjAyMzU0M3YtNzEuMDA3MDg2QzM1LjY5MzcxNCA2NzIuMDk1MDg2IDIyMy44NzU2NTcgNDgyLjc0Mjg1NyA0NTQuNDIxOTQzIDQ4Mi43NDI4NTdoMTMxLjcxNTY1N2MyMzAuNTQ2Mjg2IDAgNDE4LjcyODIyOSAxODkuMjkzNzE0IDQxOC43MjgyMjkgNDIxLjI0NDM0M3Y3MS4wMDcwODZjOS40MjA4IDE4LjkyOTM3MS05LjQyMDggMzMuMTE5MDg2LTI4LjIzMzE0MyAzMy4xMTkwODV6Ii8+PHBhdGggZmlsbD0iIzM4QkZENCIgZD0iTTUxMC44NTg5NzEgMTAyMi4zMzIzNDNjLTE0LjEwMTk0MyAwLTIzLjUyMjc0My00LjcxMDQtMjguMjMzMTQyLTE0LjE4OTcxNGwtMTMxLjcxNTY1OC0yMDMuNTEyNjg2Yy00LjcxMDQtOS40NzkzMTQtOS40MjA4LTIzLjY5ODI4NiAwLTMzLjE0ODM0M2wxMzEuNzE1NjU4LTI2OS43ODAxMTRjMTQuMTMxMi0yMy42NjkwMjkgNTEuNzg1MTQzLTIzLjY2OTAyOSA2MS4xNDc0MjggMGwxMzEuNzc0MTcyIDI2OS43ODAxMTRjNC42ODExNDMgOS40NzkzMTQgNC42ODExNDMgMjMuNjk4Mjg2IDAgMzMuMTQ4MzQzbC0xMzEuNzQ0OTE1IDIwMy41MTI2ODZjLTkuNDIwOCA5LjQ3OTMxNC0xOC44MTIzNDMgMTQuMTg5NzE0LTMyLjk0MzU0MyAxNC4xODk3MTR6IG0tOTQuMDkwOTcxLTI0MS4zNzE0MjlsOTQuMDkwOTcxIDE0MS45ODQ5MTUgOTQuMDkwOTcyLTE0MS45ODQ5MTUtOTQuMDkwOTcyLTE4OS4zMjI5NzEtOTQuMDkwOTcxIDE4OS4yOTM3MTR6Ii8+PC9zdmc+;" vertex="1" parent="1">
          <mxGeometry x="50" y="400" width="90" height="90" as="geometry" />
        </mxCell>
        <mxCell id="6_kh7ZPEecX23Z2gqXca-2" value="技术人员" style="text;html=1;strokeColor=none;fillColor=none;align=center;verticalAlign=middle;whiteSpace=wrap;rounded=0;" vertex="1" parent="1">
          <mxGeometry x="65" y="480" width="60" height="30" as="geometry" />
        </mxCell>
        <mxCell id="6_kh7ZPEecX23Z2gqXca-3" value="" style="shape=flexArrow;endArrow=classic;startArrow=classic;html=1;rounded=0;" edge="1" parent="1">
          <mxGeometry width="100" height="100" relative="1" as="geometry">
            <mxPoint x="150" y="444.5" as="sourcePoint" />
            <mxPoint x="230" y="444.5" as="targetPoint" />
          </mxGeometry>
        </mxCell>
        <mxCell id="6_kh7ZPEecX23Z2gqXca-5" value="" style="shape=image;verticalLabelPosition=bottom;labelBackgroundColor=default;verticalAlign=top;aspect=fixed;imageAspect=0;image=data:image/png,iVBORw0KGgoAAAANSUhEUgAAAVgAAAFaCAYAAABbpEVLAAAKsWlDQ1BJQ0MgUHJvZmlsZQAASImVlwdQk9kWx+/3pTcCJERASuhNegsgJfTQexOVkAQIJcRAULAriyu4FkREsKzAKkXBtQCyVkSxIqCIfUEWEXVdLIiK5X3AENx9896bd2bu3F9Ozv2fc7/5TuYEAAqdKxanw/IAZIiyJWE+7syY2DgmbhhgAAmQAQOYcXlZYnZISABAbGb/u72/A6DJ/ZbppNa/f/9fTYEvyOIBAIUgnMjP4mUgfBxZozyxJBsAVDXi11maLZ7kywjTJUiBCD+c5ORpHp3kxClGo6diIsI8EFYGAE/mciXJAJB1ET8zh5eM6JA9EbYQ8YUihJHPwCUjI5OPMJIXGCIxYoQn9VmJ3+kk/00zUabJ5SbLePouU4b3FGaJ07m5/+fj+N+WkS6dyaGPLHKKxDcM2ZG6oLtpmf4yFiUGBc+wkD8VP8UpUt/IGeZlecTNMJ/r6S87mx4UMMNJQm+OTCebEzHDgiyv8BmWZIbJciVJPNgzzJXM5pWmRcr8KQKOTD8vJSJ6hnOEUUEznJUW7j8b4yHzS6RhsvoFIh/32bzesrtnZH13XyFHdjY7JcJXdnfubP0CEXtWMytGVhtf4Ok1GxMpixdnu8tyidNDZPGCdB+ZPysnXHY2G3khZ8+GyJ5hKtcvZIaBOxAAEQgFTOAFooE1sAL2wAJEZguWTb6jwCNTnCsRJqdkM9lIlwmYHBHPbB7TysLKGoDJnp1+Jd6GTfUixDgz68tEeoj1HumTbbO+xBIAmguQ1Pdnfbp7AaDmA9DUxpNKcqZ9k+2E/BYQARXQgQrQADrAEJgitdkBJ+CGVOoHgkEEiAWLAA+kgAwgAUvBCrAWFIAisBXsAOVgH6gCNeAwOAqawSlwHlwC10AX6AUPQD8YAi/AKHgPJiAIwkEUiAapQJqQHmQCWUEsyAXyggKgMCgWSoCSIREkhVZA66EiqBgqh/ZDtdCv0EnoPHQF6obuQQPQCPQG+gSjYDJMh9VhfdgcZsFs2B+OgBfCyfASOA/OhzfDZXAlfAhugs/D1+BeuB9+AY+hAIqEYqC0UKYoFsoDFYyKQyWhJKhVqEJUKaoS1YBqRXWgbqH6US9RH9FYNA3NRJuindC+6Eg0D70EvQq9CV2OrkE3odvRt9AD6FH0VwwFo4YxwThiOJgYTDJmKaYAU4o5gDmBuYjpxQxh3mOxWAbWAGuP9cXGYlOxy7GbsHuwjdhz2G7sIHYMh8Op4ExwzrhgHBeXjSvA7cIdwp3F9eCGcB/wJLwm3grvjY/Di/Dr8KX4OvwZfA9+GD9BkCfoERwJwQQ+IZewhVBNaCXcJAwRJogKRAOiMzGCmEpcSywjNhAvEh8S35JIJG2SAymUJCStIZWRjpAukwZIH8mKZGOyBzmeLCVvJh8knyPfI7+lUCj6FDdKHCWbsplSS7lAeUz5IEeTM5PjyPHlVstVyDXJ9ci9ohKoelQ2dRE1j1pKPUa9SX0pT5DXl/eQ58qvkq+QPynfJz+mQFOwVAhWyFDYpFCncEXhmSJOUV/RS5GvmK9YpXhBcZCGounQPGg82npaNe0ibYiOpRvQOfRUehH9ML2TPqqkqGSjFKW0TKlC6bRSPwPF0GdwGOmMLYyjjDuMT3PU57DnCOZsnNMwp2fOuPJcZTdlgXKhcqNyr/InFaaKl0qayjaVZpVHqmhVY9VQ1aWqe1Uvqr6cS5/rNJc3t3Du0bn31WA1Y7UwteVqVWrX1cbUNdR91MXqu9QvqL/UYGi4aaRqlGic0RjRpGm6aAo1SzTPaj5nKjHZzHRmGbOdOaqlpuWrJdXar9WpNaFtoB2pvU67UfuRDlGHpZOkU6LTpjOqq6kbqLtCt173vh5Bj6WXordTr0NvXN9AP1p/g36z/jMDZQOOQZ5BvcFDQ4qhq+ESw0rD20ZYI5ZRmtEeoy5j2NjWOMW4wvimCWxiZyI02WPSPQ8zz2GeaF7lvD5TsinbNMe03nTAjGEWYLbOrNnslbmueZz5NvMO868WthbpFtUWDywVLf0s11m2Wr6xMrbiWVVY3bamWHtbr7ZusX5tY2IjsNlrc9eWZhtou8G2zfaLnb2dxK7BbsRe1z7Bfrd9H4vOCmFtYl12wDi4O6x2OOXw0dHOMdvxqONfTqZOaU51Ts/mG8wXzK+eP+is7cx13u/c78J0SXD52aXfVcuV61rp+sRNx43vdsBtmG3ETmUfYr9yt3CXuJ9wH/dw9Fjpcc4T5enjWejZ6aXoFelV7vXYW9s72bvee9TH1me5zzlfjK+/7zbfPo46h8ep5Yz62fut9Gv3J/uH+5f7PwkwDpAEtAbCgX6B2wMfBukFiYKag0EwJ3h78KMQg5AlIb+FYkNDQitCn4ZZhq0I6winhS8Orwt/H+EesSXiQaRhpDSyLYoaFR9VGzUe7RldHN0fYx6zMuZarGqsMLYlDhcXFXcgbmyB14IdC4bibeML4u8sNFi4bOGVRaqL0hedXkxdzF18LAGTEJ1Ql/CZG8yt5I4lchJ3J47yPHg7eS/4bvwS/ojAWVAsGE5yTipOepbsnLw9eSTFNaU05aXQQ1gufJ3qm7ovdTwtOO1g2rf06PTGDHxGQsZJkaIoTdSeqZG5LLNbbCIuEPcvcVyyY8moxF9yIAvKWpjVkk1HhqPrUkPpD9KBHJecipwPS6OWHlumsEy07Hquce7G3OE877xflqOX85a3rdBasXbFwEr2yv2roFWJq9pW66zOXz20xmdNzVri2rS1N9ZZrCte92599PrWfPX8NfmDP/j8UF8gVyAp6NvgtGHfj+gfhT92brTeuGvj10J+4dUii6LSos+beJuu/mT5U9lP3zYnbe7cYrdl71bsVtHWO9tct9UUKxTnFQ9uD9zeVMIsKSx5t2PxjiulNqX7dhJ3Snf2lwWUtezS3bV11+fylPLeCveKxt1quzfuHt/D39Oz121vwz71fUX7Pv0s/Pnufp/9TZX6laVV2KqcqqfVUdUdv7B+qT2geqDowJeDooP9NWE17bX2tbV1anVb6uF6af3IofhDXYc9D7c0mDbsb2Q0Fh0BR6RHnv+a8Oudo/5H246xjjUc1zu++wTtRGET1JTbNNqc0tzfEtvSfdLvZFurU+uJ38x+O3hK61TFaaXTW84Qz+Sf+XY27+zYOfG5l+eTzw+2LW57cCHmwu320PbOi/4XL1/yvnShg91x9rLz5VNXHK+cvMq62nzN7lrTddvrJ27Y3jjRadfZdNP+ZkuXQ1dr9/zuMz2uPedved66dJtz+1pvUG/3ncg7d/vi+/rv8u8+u5d+7/X9nPsTD9Y8xDwsfCT/qPSx2uPK341+b+y36z894Dlw/Un4kweDvMEXf2T98Xko/ynlaemw5nDtM6tnp0a8R7qeL3g+9EL8YuJlwZ8Kf+5+Zfjq+F9uf10fjRkdei15/e3Nprcqbw++s3nXNhYy9vh9xvuJ8cIPKh9qPrI+dnyK/jQ8sfQz7nPZF6MvrV/9vz78lvHtm5gr4U6NAihkwUlJALw5CAAlFgBaFwDEBdMz9ZRB0/8Dpgj8J56eu6fMDoCqPgAilgMQcAOAXeXISIvoU+MBCKEificAW1vL1sz8OzWrTxqhG4BcZH6K8Hp0lwP+adNz/Hd1/3MHk6o24J/7vwBksgi22UfvoAAAAGxlWElmTU0AKgAAAAgABAEaAAUAAAABAAAAPgEbAAUAAAABAAAARgEoAAMAAAABAAIAAIdpAAQAAAABAAAATgAAAAAAAACQAAAAAQAAAJAAAAABAAKgAgAEAAAAAQAAAVigAwAEAAAAAQAAAVoAAAAA02SXMgAAAAlwSFlzAAAWJQAAFiUBSVIk8AAAKaNJREFUeAHtnWuTFMeZqHOY4S5ACKELIIN1saS1Q2Gv49gffM5nf/Y/Ov/IH0+cOIqN3Y11xHpty2sZJAzoyk1cBAwChvucfJLOpuhqmK7q7Ev1PBlRVHd2dVbVU80zb7+Zlb30l28vrYcNyvr6elhffxwunjsbPvnP/wwn/vuTcOrE8fj82/DDzZvh/r17G7TgyxKQgAS6TWDr1m1h1+7d4eCbb4a333s//PQX/xx+9T//V3jr2NthZetK2LJluXaCK7WaSsUTsa6HO7dvhauXL4XTn50If/vTH8PJv3+aZPvDzdXK1j6UgAQksLgEHjy4H1Zv3A/3798La7dvp/WOHTvC3bW1cODga2HPvn1h+46dYWXlqVbjo+cHsEStjx4+CpcvXgh//Pd/C3//5C/hy1Mnw5Xvvgtra3cWl6RnJgEJSOA5BPjGfu3qlfgt/u/h9g83w9dfnAkf/fJ/hLd/8n54LUa3Ky+91H/nU9X2q6JySQk8fhxuxTdfunAhfP7p38J/x8iVtAANr91RrhVcPpSABDYRgUePHiUHPnzwINy6+UNaHj18GOtiVHvvn8Ibhw6HXVGyW7dtCyvDAljk+iC++eK5c+EP//Jx+PQvfw7ffHkmydV86yb6JHmqEpDAcwk8Ee3tcP7bb1Iw+t35c1G2N8M/ffTzcPSdd8K+/a9EwVZK7sy6ubqacqwn/vpJjFz/K+Veybcq1wosH0pAApuawOMYiLI8WL0RbsblXkwdELWSWl2OnV5haSmsxGRAH9Lj+AJhL6MF/vX//p/w6Z//FM59/VUcKbCa6vsb+kACEpCABJ4hsHr9euqnuhtTqMvLyynVmiLYPFqA8PZiDHOPx2FYyPVUHDVAXgHpWiQgAQlI4PkE7t1diwMC1sKWGLm+tHdfGraVcrDrj9fDo0cPw3cXzof/+Pj/hb/9+Y/hbIxckSt5BosEJCABCYxGYPXG9XD8kz+HB/fvxxRBHDFw59atcOm7i+FkHC3w9/jC6c8+S0lbI9fRgLqVBCQggUyAcbEEq2kUAUnaK/Emgj/++7/Gmwj+K3z75RfKNZNyLQEJSKAhAYJWvHr9++/DCkMLznz+WTj+17/EnOvxWHnV0QINgbq5BCQggSoBJHs73gG7wg0ERK5fnT6lXKuEfCwBCUhgDAL0X60wccvJ45+GK5fi7a8LdIfWUuzJYxxa/Deunj7OdYlb73XqKE/+5UH/0dP6gbr0wsA/z75r4EWfSqCjBJ4O5HzBCXD35+DLsY7Sr8/bVOsrdWk0U3oDk0v135Xa6OI/3LC18o/jx8OFs98unFyXtmyJwySeXVIdUs1LfL3/mLp4FQdlzIXtb/O8q9yTb3rv87axXgIdJdCX3XOkhwqTHPPrQ6SZX0/rKJ78/DHbxud50H5ex4qFkOzSwVcPrjO/QNdKlh4SzY/762Fi7dWxDePUkG1/e573lvjgSSRbXVceD+OUIte4DYV2LBJYFAKIMJUszWEn1nstbZu3q655PLgg1V5dluqgaHk++D62zXXDDmXe6laY0KVrBYlxpwQLU4Mt56VXtyWuk0SRXVyyALP8+s858Z4Qc12VxbC66uv58ajb5e1dS6ArBPL/mRceb/4/xkZZrNU3VOvy47xOb4kSz89ZxwX5Po45TBZymQ/jZCpMqJLWvTq2m/eyFKeInfuj5CI/83W/Itehgu1Fp/MO3+OTgASGE0iSJcodItgs2SRgtukt8yjcuRdsjlYZtLstLlu3bo2zh29N0Ws/PTDk6/7wy2atBCTQFQII85mllx5AqCmqjbfwM+vf/XjHFHdNUTdvkn1mNq15AZ8jVlIAfN0nSk1y7UmWlECW67wcs8chAQmUJYAHWAYLEk2SJdCKYs3pQiLbFPHmiDauZ13mLoLNEStC3bZ9e1pSxEonFcKtRKuzhuf+JSCB2RDIkW1KD5BGiDLl1n6iWaZVZU3OdtYR7VxEsPkvFfLkrxFpgCxX1kSww/6SzebSulcJSGDWBKrOiIJIIn3IN9teEIZLEO7DKF+i2izkaR/3XESwSawRDlHrjp070xqpVmFNG4z7k4AEukUgd3YhVMRKXpaJV4hoU/pgBimDmUawOR1AThW5bo/RKoIlgs3jVLt1iT1aCUhgVgQI1FjW6beJeVq+DVPSDUY9yU67I2ymggUAUt0ef/qWBbFSp1xn9RF1vxLoPoGcTsQnCJf1PZa7d9MyTcnORLApJRBFytArIlbkSq41/8Xp/iX2DCQggVkSqOZo8U1+zjHlDjBSCpMuUxdsSgvElMDOKNZ+vrX3l2bSJ2v7EpDA5iOAYAngcmC3EiNZJrZiDO2kRxlMVbCcYBrT2su1ErmmzqxYb5GABCQwCQIpqCP1yLhaotm4kxS9xueMNJhkJDs1wXJyyHTX7t39lADPqbdIQAISmDSB7KClGNjxmJTkndu3JxrJTkWwOTQnTM8dWpwc9RYJSEAC0yCAVFNAx6il+JhJWBi+xZqbEiYRyU5FsMh0565dT3Kuvc6sdKLToOo+JCABCVQI5OiVgI8cLIEeOdnOCTafCKMFUuQaT8ica+VK+1ACEpg6AbzEgotCTBdQUiQbZVt6CNdEv6MTuTLOlREDrJlTgBOzSEACEpg1gSxZbnLiGzZBIM4qWSaSIsh/IbhDK+dckas515KXzrYkIIFxCGRP4abtcUws6YKciy01d8HEBNu//TX+Vchj0MaB4XslIAEJTIIAgV/OxzJ/AbnYnDIYd38TEWw64Bh2c9D59tdxD9T3S0ACEpgEASJZUgO4ilQmgs3LuPsrLth8sNylxcKMWBYJSEAC804AyeKsPHyrRIdX0U6uLFf+EpA4Zm3edd4/Vh6fBCQAAe7ySj9NVfnmjdPGKUUFW00N5OFY4x7gOCfneyUgAQmMSgBXsazESJb0Zuo7GvMbeNEUASF29cBKy3VXHEpx4MCBlC9ZXV0Na3EyXSZsIJS3SEACEhiXAM4irYnHUmcXfhmj0WKCrR5YMv8EboNFrr/5zW9SIvrEiRPh7NmzAdEq2DE+Ab5VAhJ4hkD+Js4vI9yNssVtbWfdKiJYDoDolbQAY8pYU1e67N27N3zwwQfhtddeC7vjpDGvvvpquHDhQvj+++/DzZs3w904DRmy5S+PRQISkEAbAggWf2WXPYxua9vhVUSwHFBKDseOreXewbU5sY3ewxCK119/Pfz0pz8Nb731Vrh48WI4c+ZMOHXqVDh58mR6fmdC9xRvdGy+LgEJLA6BFDRGl9FZn+Qaf3KmzTflooJFspMclkVk/NJLLyXJEsUePHgwvPzyy2mh/ptvvgmXL18O169fD7du3Qr3IhSi2bbh/eJ8XDwTCUigKQFchtMQK/PGzkywaXhDTA0kwUbrT6PwF4Y0wdGjR8Mrr7wS3nvvvXD+/Pnwj3/8I0W0RLVXrlyxE2waF8N9SGABCeRcLLfP8rhNGTuCTaE0+dcJ5l6fd2KE7yzkZt94442Um92zZ0/Yt29fYE0n2LVr11JH2O04sS6/xWM0+zya1ktAAlUCyW29fiWiWZ439cdy9PL/rjba5DE7TEMaouSYjYYbC6ibVDl8+HD49a9/HVgPFvbL/rNsjx07Fg4dOhRnI3syHRm5WVIGFglIQAKjEMApLKQZCc4YVdBUsGNFsOyc0QNM7JJ73kY58NLbZBDIlGX//v3hzTffTDlacrNEtCykEG7cuJHys3kMbeljsT0JSGBxCOAW3Eb/D65r2qcznmB7O2bnW+KBzEsBCCMO6AhjLtof/ehH4aOPPgpfffVVYPzsF198kWRbasaceTlvj0MCEihPAMniOBY6upoMAx1LsEg1mT3umI6ueSk5sqYTjIVOMHK0jDrgOSMPqLt06VI/P0v6oE0v4bycs8chAQlMhgBu41s6y1JMFTQpYwk2iSzulHt3eTyvhT8CpAoYO0uqII84IJIlov3666/D1atXA3laiwQkIIEqgWoE29Rz4wuWHOycC5aUQR5xgGC5A4wbFrj1Nke4jDhgWBd3hOX8bJOvAtUL4mMJSGBxCKRAsqXnigg2D2HoClJkS4qADjFSBz/72c9Sfvb06dPhs88+C+fOnQs//PCDow66ckE9TglMkACCxXFtPNd6mBY75caCNDwrrnnOMslCxPnOO++kMa7sJ49caLpf3seQLmbnYsQBOVnGzfIc+dJBxkJkTmnac5je5D8SkMBCEMhuo4/mHvOdxBsPRi2tBJt3iIx2TGH8az6ZLD7GovGYCDQNE+uJMG/XdE0bjDYgqmXEAblaxMs+mECGBcmaMmhK1u0lsBgEcB5ipTP8YRTtqKW1YJESgkVM3MU1jULkydAqcqQM/GWN/JgTljJORItM6QgjSiaiJZpF4IMRLXJXtNO42u5DAvNFgAj2fm+0UbrhILpgo9JKsIgsC5af5aaXfhoFsXHLK51RX375Zfj222/TrbD8VckiTMPGWka0OdWQRx0wjvZYvCOMO8eQL+edpQ7gBHkaJ+4+JCCBmRNAsPzqLOv1ESeRai1YJEQOlsiP8WHTKJwYESs9/cwBy6xZDK1Cekg2f50fJ6JFsjllwG23OaIlmq1GtPm2YFMH07jy7kMCsyfArbL5F1T4fz9KgNVasAgGwfLrBQhpFoV0QY5ouUurdETLORG1cq6kDRhxQETLbbj8YQFylvsszt99SkAC0yPA//c8bWGOYjfaeyvBIlTyrttYomRnJdhJR7S5Mw/BMl6WMbREtKwRLEs1NQFsI9qNPnK+LoFuEuD/Nh1deIc1zzcqrQSbozoiWJZZCXbw5CYd0eb0AakCRMtsXYw64BZcmLB/0hR0wFkkIIHFIkDelREE/D9nmZxgYwSb5BojO6I7BuDOQ9koos0dVG1ztAgWkRK1Mm42z2lAB1iOZFnDJP/RsTNsHj4ZHoMExifwOHZsE7kmycaRSxMTLPJAJCykCpDOPJZhES2dY6VGHXDeecQBt94eOXIkRbWIF/jsB5lzHBYJSKDbBPg/ndMD/L+m02uj0ipFwKgBOreI1BDMvAp2WERLp1jumGLNkgXIeeS860bgeJ1tOX9SBkg1L0S0sKGePC3bsG2OZkfpfRxl/24jAQlMjwApAqSKL/JwrY323kqwzJ6VvgrHCBbZzqtgB08+R7T8MCKjDviRxBzR5k4rZJi/3g++f6PncKAdOsGIZrkjjIlluGmBvCz52fQXcIS/fBvty9clIIHpEiAwyhEs/595vFFpJVgElCIzBBsfd0WwOaJlIhfEyq8b5HG0+c6wcSJaOBC5MuIgz3FANJvnOMgRLdtxLDly3ugi+boEJDB7AgiWNAH/bycr2Bjl5RRBlwQ7eIleFNESoSPEthEtKQHYIFdGHByL42eJaoluEezq6moawzt4TD6XgATmlEBVsL1bZjc60nYRbBQst8jm3vJ5+jWDjU64+vqLIlo6qMbN0eZInxEHefwsczfw1y/fFFE9Hh9LQALzS4CZB1JHV+zgynMSbHS0rQRLVEeKgKFabeZI3OigZvV6NaL9Ov7KQc7RkjsdJ6LNHWdwQ7aIm3lnv/vuu1mdqvuVgAQaEsid1ClFMGIE23oSAaQRu8YbHuL8bg48IksWcrMXLlwIFy9eTLnaa9eupfkPuKmATivyq4iSFMKoKRJ45Y40pkVE2BYJSKB7BJq4r51ge3JdHL0+e5FzMpvOMEYb8HtdJ0+eTHMRvP322+Hdd98N77//fpqTgBxrVzr5nj1Ln0lAAk0JJLk2eFM7wcYdsKO0NNhZlzatRrR0SFUjWmbxQr6I9sc//nGaqHvUSLZLDDxWCUjgKQECyrQ0+ObeWrBpt71I9ukhLOajwYiWIV6nTp1Kv+X129/+Nk06TueVkexiXn/PSgKJQCWoHPXbe6t7XJta3MsjAQlIYGEITCuCbZqP6CpgzpPolI4tOrpIDXzwwQdpfezYsRTBkiKwSEACi02gaVp0vBTBArMEJON86cRCrNwgwITbwzq52M4iAQlsEgJEsCwjFAU7BNJgxMpPhROxPm+Y1pAmrJKABBaRQBQrfhi1tBNsw52MejCz3C5HrMwjwPwBpSPWPCqB2bwYV8t4W4sEJLDYBNoJFiYLJNlqxHr06NFAxMo411IRax6FwI818mu4Z86cCbdu3VrsT5ZnJwEJhNaCHT1Ink/KL4pY33vvvfCTn/ykfyNB2xwrk/JyWyxjZhlLe/78+TS86/PPP09180nGo5KABEoRaC3YUgcwi3aGRazkWPP8rYO3wrY5RqJWpkI8d+5c+OKLL9LcA8xvcOnSpXT7LcK1SEACi01g0wh2o4iVlACjBBg10DZiZXYuZuEiz4pAmcyFlAA3JRC1EsHymvnXxf5P5dktJgEc0rRsCsEORqx5LoGSESvgkSvzFhCpHj9+PEWuSPXKlSspJVCdzLvphXJ7CUhgTgg0EO1YgkVcbaw+DUwcF5EoowIYx7p3796UU2Uca86xjhuxMjdkzrMSsSLSs2fPpk6sEydOpOkOmbcAsVokIIHFIEAcO2os216wDSw+bazViPXYsWP9UQFErAcPHkw/TlidbrDt8SFXOrCQKkI9ffp0il7JszJigBys6YC2dH2fBOaPQNOAspVgmxh8WoieF7Ey5IqUAKMCxo1Y6bjKv4KAQBnPmvOspATItzKHrEOwpnXV3Y8E5ptAK8HmU2pq8/y+0uvnRax5HCs/p10iYs1yRap0WtF5xZhWpjJkkm7Eyq8fWCQgAQlAYCzBzhLhtCJWolY6r5AnEiXPyu9p8ZMvOSVAPduxWCQgAQlkAp0U7LQiVoTJ7+/QUYVMiVj5ZQPGtlJHmoBhV8o1f5xcS0ACVQKdEiy/YzU4KqBkjhUwyJLOK8SJQBEpQkWsCBbRMhQL8TKKwCIBCUjgeQQ6JVjk+uP4Ey15PtY8jrVUjjVHoqQD+C0uZEqulV+XRao5z4pc2dYiAQlI4EUEOiVYOqo+/PDD8Itf/CJNxsKoAH6qpe2dVxkMwmSsKmJlPCudVtWUAJ1adF6xnUUCEpDAqAQ6JVgi1Z///Ofhl7/8ZZFRARkScmV4FcOsGM/KGqny21uMc0WujCCwSEACEmhCoFOC3bFjRxrLeujQoSbnWNsWWXIDADcCELFyYwC3t5JjZXQAOVfEyugBiwQkIIG2BDol2LYnOfg+5MpNAuRWiVgZy4pUL1++nDq2iGjp6LJIQAISGIfAphAsvf05z8rIADqsmIQFsSJYolfqiGgtEpCABEoR2BSCRa50YNF5lW8QyHlWUgQMyTIdUOojZTsSkEAmsJCCZQgVUSudU+RSSQfkPCsRKxNgE8ESzTrcKn8UXEtAAqUJLKRgkSsRKbe15hsE6MBCqkSsSJc8q3It/XGyPQlIoEpgIQSLKFnovMpjWRlixZwBeVIWbhwgkkW+irX6EfCxBCQwKQILI1iGXnGnFbnVPGcAgkWqOc+qXCf1MbJdCUhgGIFOC5ahVPT8k0tFrgy1Qq55YdgV23iTwLBLb50EJDBpAp0VLF/z6f0nSmW4FaMDGG5F3pUJWsizIleiVosEJCCBWRDolGDzcCtGBPC1n9tbGRFAxEquledEtN4kMIuPkvuUgAQGCXRKsIwM4Gs/0WseboVUuUmANIFzBgxeXp9LQAKzJNApwSJRIlVGBCBYfmyQ3CtitUhAAhKYNwKdEixDr/7whz+E5eXlFLGaDpi3j5PHIwEJVAl0SrAIlcUiAQlIoAsEtnThID1GCUhAAl0koGC7eNU8ZglIoBMEFGwnLpMHKQEJdJGAgu3iVfOYJSCBThBQsJ24TB6kBCTQRQIKtotXzWOWgAQ6QUDBduIyeZASkEAXCXRqHGwXAU/imPfu3RsOHz6cfrp8Eu3PS5tM2JN/eWJejsnjkEATAgq2Ca052Ra5/u53vwsffvjhnBzRZA6D26J///vfp7v2JrMHW5XAZAko2MnynUjre/bsSXL91a9+NZH256nRjz/+eJ4Ox2ORQCMC5mAb4XJjCUhAAqMTULCjs3JLCUhAAo0IKNhGuNxYAhKQwOgEFOzorNxSAhKQQCMCCrYRLjeWgAQkMDoBBTs6K7eUgAQk0IiAgm2Ey40lIAEJjE5AwY7Oyi0lIAEJNCKgYBvhcmMJSEACoxPwTq7RWc3Nltyjz22ki144R87VIoGuElhaDmG96cHv3Lkz7D9wIOzctavpW92+AAEneykA0SYk0JLAWvzh1evxF67X1tY2bMEIdkNE87fBzZs3nQBl/i6LRySBGgFzsDUkVkhAAhIoQ0DBluFoKxKQgARqBBRsDYkVEpCABMoQULBlONqKBCQggRoBBVtDYoUEJCCBMgQUbBmOtiIBCUigRkDB1pBYIQEJSKAMAQVbhqOtSEACEqgRULA1JFZIQAISKENAwZbhaCsSkIAEagQUbA2JFRKQgATKEFCwZTjaigQkIIEaAQVbQ2KFBCQggTIEFGwZjrYiAQlIoEZAwdaQWCEBCUigDAEFW4ajrUhAAhKoEVCwNSRWSEACEihDQMGW4WgrEpCABGoEFGwNiRUSkIAEyhBQsGU42ooEJCCBGgEFW0NihQQkIIEyBBRsGY62IgEJSKBGQMHWkFghAQlIoAwBBVuGo61IQAISqBFQsDUkVkhAAhIoQ0DBluFoKxKQgARqBBRsDYkVEpCABMoQULBlONqKBCQggRoBBVtDYoUEJCCBMgQUbBmOtiIBCUigRkDB1pBYIQEJSKAMAQVbhqOtSEACEqgRULA1JFZIQAISKENAwZbhaCsSkIAEagQUbA2JFRKQgATKEFCwZTjaigQkIIEaAQVbQ2KFBCQggTIEFGwZjrYiAQlIoEZAwdaQWCEBCUigDAEFW4ajrUhAAhKoEVCwNSRWSEACEihDQMGW4WgrEpCABGoEFGwNiRUSkIAEyhBQsGU42ooEJCCBGgEFW0NihQQkIIEyBBRsGY62IgEJSKBGQMHWkFghAQlIoAwBBVuGo61IQAISqBFQsDUkVkhAAhIoQ0DBluFoKxKQgARqBBRsDYkVEpCABMoQULBlONqKBCQggRoBBVtDYoUEJCCBMgQUbBmOtiIBCUigRkDB1pBYIQEJSKAMAQVbhqOtSEACEqgRULA1JFZIQAISKENAwZbhaCsSkIAEagQUbA2JFRKQgATKEFCwZTjaigQkIIEaAQVbQ2KFBCQggTIEFGwZjrYiAQlIoEZAwdaQWCEBCUigDAEFW4ajrUhAAhKoEVCwNSRWSEACEihDQMGW4WgrEpCABGoEFGwNiRUSkIAEyhBQsGU42ooEJCCBGgEFW0NihQQkIIEyBBRsGY62IgEJSKBGQMHWkFghAQlIoAwBBVuGo61IQAISqBFQsDUkVkhAAhIoQ0DBluFoKxKQgARqBBRsDYkVEpCABMoQULBlONqKBCQggRoBBVtDYoUEJCCBMgQUbBmOtiIBCUigRkDB1pBYIQEJSKAMAQVbhqOtSEACEqgRULA1JFZIQAISKENAwZbhaCsSkIAEagQUbA2JFRKQgATKEFCwZTjaigQkIIEaAQVbQ2KFBCQggTIEFGwZjrYiAQlIoEZAwdaQWCEBCUigDAEFW4ajrUhAAhKoEVCwNSRWSEACEihDQMGW4WgrEpCABGoEFGwNiRUSkIAEyhBQsGU42ooEJCCBGgEFW0NihQQkIIEyBBRsGY62IgEJSKBGQMHWkFghAQlIoAwBBVuGo61IQAISqBFQsDUkVkhAAhIoQ0DBluFoKxKQgARqBBRsDYkVEpCABMoQULBlONqKBCQggRoBBVtDYoUEJCCBMgQUbBmOtiIBCUigRkDB1pBYIQEJSKAMAQVbhqOtSEACEqgRULA1JFZIQAISKENAwZbhaCsSkIAEagQUbA2JFRKQgATKEFCwZTjaigQkIIEaAQVbQ2KFBCQggTIEFGwZjrYiAQlIoEZAwdaQWCEBCUigDAEFW4ajrUhAAhKoEVCwNSRWSEACEihDQMGW4WgrEpCABGoEFGwNiRUSkIAEyhBQsGU42ooEJCCBGgEFW0NihQQkIIEyBBRsGY62IgEJSKBGQMHWkFghAQlIoAwBBVuGo61IQAISqBFQsDUkVkhAAhIoQ0DBluFoKxKQgARqBBRsDYkVEpCABMoQULBlONqKBCQggRoBBVtDYoUEJCCBMgQUbBmOtiIBCUigRkDB1pBYIQEJSKAMAQVbhqOtSEACEqgRULA1JFZIQAISKENAwZbhaCsSkIAEagQUbA2JFRKQgATKEFCwZTjaigQkIIEagbEEu76+XmvQCglIQAISeEKglWDRqmr1IyQBCUjgxQRaCTY1afT6YrK+KgEJLByBpt/a2ws2omNnTXe4cMQ9IQlIYFMRaPINfizBbiqqnqwEJCABCDT49q5g/chIQAISGIFAm2/sCnYEsG4iAQlIoA2B1oJ1FEEb3L5HAhLYTARaC5Y8hB1cm+mj4rlKQAJNCbQTrHJtytntJSCBTUignWA3IShPWQISkEDTb+4K1s+MBCQggSYEGKY14lCtsQRrDrbJVXFbCUig6wSa3GTAubYSbNrJiAbvOlCPXwISkECfQEPvtRLsMztruMP+e30gAQlIoEsEouvyzQajDlNtLdimO+oSR49VAhKQwCCBnB5okhptJ1iiVmw+eAQ+l4AEJLDABJrIFQztBBvfmHZkemCBP0qemgQkMIxAE/e1EuwzobKSHXYNrJOABBaQQBO5cvqtBMsb2VFaeGKRgAQksOgECCbxXjzPUdOj7QRb2dGiM/X8JCABCUAgibUXWI5KpJ1g2VlPsqPuyO0kIAEJdJ1A33v4b4TSSrA5RO7vbIQduYkEJCCBThPI39xHlCvn2kqwKQ/x+LE52E5/Wjx4CUigCQECy8dRrk36nloJNu/ocZQssrVIQAIS2AwEkCuSHdV7rQRL4+tGsJvh8+Q5SkACmQDey+7LdRus2wk2Npp3NKrJNzgOX5aABCQw1wT4rp4Dy1G910qwWa4pHzHXSDw4CUhAAoUIxOiVtCjLqInRVoLlcPOORjV5oVO0GQlIQAIzIZDyrz3Bjuq9VoLNO0rh8kxO1Z1KQAISmC4BotYcWOLAUcpYgmVno5p8lINxGwlIQAJzS2AWKYI8LmxuoXhgEpCABAoQyN/cmwSWK232m8NjdtTvVYsNLS0ttWnO90hAAhKYawJJrr0Ituq8jQ66VYqARtkhO8o5iY125OsSkIAEukigH7k+evRMQDnKubQWLI2z40dxp4/ZcXxskYAEJLBoBJJgW3quiGCRrIJdtI+V5yMBCUAgB5JtPDe+YB8+DA8VrJ9ECUhgQQkg2Id4Li5NA8mxBMsIAnb6iB0zZMsiAQlIYMEI4DYclzzXMBU6lmDZcTZ7mmFmwcB6OhKQgASqEWwaotUAyXiCjTYnL4HZ05CthnZvcJxuKgEJSGDqBJArbkvf1FukQscWLCMIkmTjWslO/fq7QwlIYEIEslyz36beycV5cRDs+OGDB62SwBNiY7MSkIAExiKQ3Ba/neO2tkNRx4pg89GTi30QD+LB/fspis31riUgAQl0lQDfyO9Hp+E2HrcpRQTLzpFrEmyMZi0SkIAEuk6AqBWnIdm2gm01F8EguCzY5eXlsCPKltDaeQkGKflcAhLoCoGUHsgR7BiCLRLB9vOwvXwFPW5tjd+VC+BxSkACi0kgj3vN/UptOrcymSKCpTEkS0h9/969tCjYjNi1BCTQJQK4i7RASg1Ep+G2tqWYYDkATN8X7JgH1vaEfJ8EJCCBtgTyt/HssUdRtuOUooLtmz9GsaQJCLXHsf84J+Z7JSABCTQhgKtYmFvlHt/Ex8i95v0WFWy2P8MaODjWSNYiAQlIYN4JpOGmeIsAMbqrxBwrRUYRVMFlyd5dWwv8vsGWLVvClji6wCIBCUhgngmQ4sRbLOkb+Bi513yexQVLwzlVgFy3btuWBMtjh25l7K4lIIF5IUBQiLP4xl0qNZDPrWiKIDeaotiYgyVNcO/uXUcVZDCuJSCBuSOQAsKYFkCu3FhQKnrlRCcSwSLYLFkES+SaI1geG8nO3WfMA5LApiOQPUW+FbniqtJj+Cci2HylyGlw4IwiIw+LWFe2blWwGZBrCUhgZgQQLELlm/banTvpmzbOKlkmKth8Aog1R7LRrmFlZSVJ1ki25KW0LQlIYBQC/cg1yhUv0amVUwOjvL/JNhMVbD4Q/irwF4JcB1JlYd4CBZsJuZaABKZFAMHiJG4muHP7dvqWXTpyzecyFcEiVk5qKZ4Q0Stl2/btRrL5KriWgAQmTiBHroxvRa5Er6zJwfLaJMpUBMuBcwLkO/iL0e+l27GjL9lJnJxtSkACEsgEsoPuR7Heid+o6R/quyhvVHg9NcFy3HmsWer0iuNiKetxnCwdX3mUQar0HwlIQAKFCCBW3EOkmoeOEr2mO00nFLnmQ1+K91hNJjbOexiyRqbkYLkJYeeuXWF7TBeQMqDOIgEJSKAkgZxvJWKlQwvJ5h9qLbmfYW1NNYLNB8Bfk35eNnZ48ReGZWuMZFPnl3d9ZVSuJSCBFgSyU5ArIwTyOFciV+p4fRplJhFsPrE8mmA5dnxti9EskeyOnTtTZJtHG+RtXUtAAhIYhUCWKykAIlbkmiZwiX1A05QrxzqTCDZDAgRJ5hzRpqg2vsgcjCsxXcDNCaQTWCwSkIAEXkSg75EYoTLlIJFrSgn0OrN4fdplphFsPtkcrabcbIxmSRWQkyWqrQ7nytu7loAEJFAlkIM18qt5smw6tRBt/sntaaUFqsc10wg2H0gO6fkLQwifEtA9MNQxymCZSLYX0WYh5/e7loAENheBqjMQKN968yiBJNheR9YspFq9EnMRwVYPiMcINI80QKrcnEA0y6gD1uRseZ3tLBKQwOYigDRTMMYNA1GkpAJYp3RjT7a8Pg+T/c9FBDv48QBgimQjLCT6MEo2Pye6TRFtNZrtyTZHtop3kKjPJdA9AjlK7a+RZpZrdAMRKx1ZWbLT7sAahehcRrCDB44wiVj7S5Qrw7mIbFmIaNMa6VbEO9iOzyUggW4QyCJNX/+RKSMA4sI6PY51vEakmhfeM29ladvy8jrm71JBuAg2S7YmWCQbt0mRLOt4ctXH8Uk63fTvkMeZRfX1XDdsPep2w95rnQQ6QSDKayR9DduuWjfsMXW5vvf4cVwngUY34aeqYPO32XkU6uC1XNqza9c69+V2rSBMlpyLzc/TuhrtDjxeGpJOqL4X+WZh9teVumGc8na8RlsWCSwKgb7EsgCHnVjvtbRt3q665nFviQ8C8szPyZPmCHRwzWv97XrvYZtcN+xQ5q1uZe++fekvBLkMDr4rJUMedswvkmx+rSrV/uN48jyuShYe1deH8ulJNb136AZWSqC7BPi/lkpeD5wKr+b/j3m79I4s0t7rcaP+dkmyPVkOE2sW6cCuOvd05fXXX0u5jZs3b6Y7Hjp3BkMOOH0g4sV7FC8oXzMGpflMxMn7syBzWwNRaHX7vMmwtbHrMCrWdZ3AOKkBzr3//p6g+/JNL0bp5jUCrjzmYdfLyqHDh5/20PfyHf2/WB0+u3QO+YJ1+Dw8dAlIoLsEVt760dHYWbQS1tbuPpkQoXdbWXdPySOXgAQkMB8EVl5++eXUQ7e6uppysFevXk2TYi9KDmQ+MHsUEpDAZiOQhpEubVkKe/fuCe++927YGWeyevT4ySQJdHp1bfjWZruAnq8EJDC/BPDpCh1A2+NPtxyI9/sj1GvXr6XJElZvrIa7ce7ERcjHzu8l8MgkIIFFI0Dkmpz66qtPpitEsgza3/3SS+HIkSPpHt6HD57c52uqYNEuv+cjAQlMkgByff3118PhI4efzgeLZHfEF1599WAatrV2Zy0dw+34I4Xc66toJ3lJbFsCEug6gX7keuBAOBxHZx06hGD7g9RC2LqyNezZs4dRw2nwGjmE8+fOhRs3bqRJFczJdv0j4PFLQAKTItCPXKNc3zp6NByIon1mNi1uO+VnW2KvVxx8H9IkKkS227ZvC9evXw9EtUjWvOykLpHtSkACXSPADwTwU1cI9XBMsR46dCg+fiXs3r07rPTunXjmnFa2rqRIljfuiSMM9r+yP5w5fTpcvnQ5jZVl4gWLBCQggc1OgACUb/qHYr6Vm7aQ68v796dAFbc+E8FmWESy/FQLgt0Vf1abDjBuRFha2hKuX7sWyMsiWfKyFglIQAKbiUAeFMDk/8j1QBwtcOTIW+GNN98Ir8Qolrpc/j9hDtqWf4x7XAAAAABJRU5ErkJggg==;" vertex="1" parent="1">
          <mxGeometry x="250" y="200" width="94.52" height="95.07" as="geometry" />
        </mxCell>
        <mxCell id="6_kh7ZPEecX23Z2gqXca-6" value="" style="shape=image;verticalLabelPosition=bottom;labelBackgroundColor=default;verticalAlign=top;aspect=fixed;imageAspect=0;image=data:image/png,iVBORw0KGgoAAAANSUhEUgAAANQAAADQCAYAAAB/T08OAAAKsWlDQ1BJQ0MgUHJvZmlsZQAASImVlwdQk9kWx+/3pTcCJERASuhNegsgJfTQexOVkAQIJcRAULAriyu4FkREsKzAKkXBtQCyVkSxIqCIfUEWEXVdLIiK5X3AENx9896bd2bu3F9Ozv2fc7/5TuYEAAqdKxanw/IAZIiyJWE+7syY2DgmbhhgAAmQAQOYcXlZYnZISABAbGb/u72/A6DJ/ZbppNa/f/9fTYEvyOIBAIUgnMjP4mUgfBxZozyxJBsAVDXi11maLZ7kywjTJUiBCD+c5ORpHp3kxClGo6diIsI8EFYGAE/mciXJAJB1ET8zh5eM6JA9EbYQ8YUihJHPwCUjI5OPMJIXGCIxYoQn9VmJ3+kk/00zUabJ5SbLePouU4b3FGaJ07m5/+fj+N+WkS6dyaGPLHKKxDcM2ZG6oLtpmf4yFiUGBc+wkD8VP8UpUt/IGeZlecTNMJ/r6S87mx4UMMNJQm+OTCebEzHDgiyv8BmWZIbJciVJPNgzzJXM5pWmRcr8KQKOTD8vJSJ6hnOEUUEznJUW7j8b4yHzS6RhsvoFIh/32bzesrtnZH13XyFHdjY7JcJXdnfubP0CEXtWMytGVhtf4Ok1GxMpixdnu8tyidNDZPGCdB+ZPysnXHY2G3khZ8+GyJ5hKtcvZIaBOxAAEQgFTOAFooE1sAL2wAJEZguWTb6jwCNTnCsRJqdkM9lIlwmYHBHPbB7TysLKGoDJnp1+Jd6GTfUixDgz68tEeoj1HumTbbO+xBIAmguQ1Pdnfbp7AaDmA9DUxpNKcqZ9k+2E/BYQARXQgQrQADrAEJgitdkBJ+CGVOoHgkEEiAWLAA+kgAwgAUvBCrAWFIAisBXsAOVgH6gCNeAwOAqawSlwHlwC10AX6AUPQD8YAi/AKHgPJiAIwkEUiAapQJqQHmQCWUEsyAXyggKgMCgWSoCSIREkhVZA66EiqBgqh/ZDtdCv0EnoPHQF6obuQQPQCPQG+gSjYDJMh9VhfdgcZsFs2B+OgBfCyfASOA/OhzfDZXAlfAhugs/D1+BeuB9+AY+hAIqEYqC0UKYoFsoDFYyKQyWhJKhVqEJUKaoS1YBqRXWgbqH6US9RH9FYNA3NRJuindC+6Eg0D70EvQq9CV2OrkE3odvRt9AD6FH0VwwFo4YxwThiOJgYTDJmKaYAU4o5gDmBuYjpxQxh3mOxWAbWAGuP9cXGYlOxy7GbsHuwjdhz2G7sIHYMh8Op4ExwzrhgHBeXjSvA7cIdwp3F9eCGcB/wJLwm3grvjY/Di/Dr8KX4OvwZfA9+GD9BkCfoERwJwQQ+IZewhVBNaCXcJAwRJogKRAOiMzGCmEpcSywjNhAvEh8S35JIJG2SAymUJCStIZWRjpAukwZIH8mKZGOyBzmeLCVvJh8knyPfI7+lUCj6FDdKHCWbsplSS7lAeUz5IEeTM5PjyPHlVstVyDXJ9ci9ohKoelQ2dRE1j1pKPUa9SX0pT5DXl/eQ58qvkq+QPynfJz+mQFOwVAhWyFDYpFCncEXhmSJOUV/RS5GvmK9YpXhBcZCGounQPGg82npaNe0ibYiOpRvQOfRUehH9ML2TPqqkqGSjFKW0TKlC6bRSPwPF0GdwGOmMLYyjjDuMT3PU57DnCOZsnNMwp2fOuPJcZTdlgXKhcqNyr/InFaaKl0qayjaVZpVHqmhVY9VQ1aWqe1Uvqr6cS5/rNJc3t3Du0bn31WA1Y7UwteVqVWrX1cbUNdR91MXqu9QvqL/UYGi4aaRqlGic0RjRpGm6aAo1SzTPaj5nKjHZzHRmGbOdOaqlpuWrJdXar9WpNaFtoB2pvU67UfuRDlGHpZOkU6LTpjOqq6kbqLtCt173vh5Bj6WXordTr0NvXN9AP1p/g36z/jMDZQOOQZ5BvcFDQ4qhq+ESw0rD20ZYI5ZRmtEeoy5j2NjWOMW4wvimCWxiZyI02WPSPQ8zz2GeaF7lvD5TsinbNMe03nTAjGEWYLbOrNnslbmueZz5NvMO868WthbpFtUWDywVLf0s11m2Wr6xMrbiWVVY3bamWHtbr7ZusX5tY2IjsNlrc9eWZhtou8G2zfaLnb2dxK7BbsRe1z7Bfrd9H4vOCmFtYl12wDi4O6x2OOXw0dHOMdvxqONfTqZOaU51Ts/mG8wXzK+eP+is7cx13u/c78J0SXD52aXfVcuV61rp+sRNx43vdsBtmG3ETmUfYr9yt3CXuJ9wH/dw9Fjpcc4T5enjWejZ6aXoFelV7vXYW9s72bvee9TH1me5zzlfjK+/7zbfPo46h8ep5Yz62fut9Gv3J/uH+5f7PwkwDpAEtAbCgX6B2wMfBukFiYKag0EwJ3h78KMQg5AlIb+FYkNDQitCn4ZZhq0I6winhS8Orwt/H+EesSXiQaRhpDSyLYoaFR9VGzUe7RldHN0fYx6zMuZarGqsMLYlDhcXFXcgbmyB14IdC4bibeML4u8sNFi4bOGVRaqL0hedXkxdzF18LAGTEJ1Ql/CZG8yt5I4lchJ3J47yPHg7eS/4bvwS/ojAWVAsGE5yTipOepbsnLw9eSTFNaU05aXQQ1gufJ3qm7ovdTwtOO1g2rf06PTGDHxGQsZJkaIoTdSeqZG5LLNbbCIuEPcvcVyyY8moxF9yIAvKWpjVkk1HhqPrUkPpD9KBHJecipwPS6OWHlumsEy07Hquce7G3OE877xflqOX85a3rdBasXbFwEr2yv2roFWJq9pW66zOXz20xmdNzVri2rS1N9ZZrCte92599PrWfPX8NfmDP/j8UF8gVyAp6NvgtGHfj+gfhT92brTeuGvj10J+4dUii6LSos+beJuu/mT5U9lP3zYnbe7cYrdl71bsVtHWO9tct9UUKxTnFQ9uD9zeVMIsKSx5t2PxjiulNqX7dhJ3Snf2lwWUtezS3bV11+fylPLeCveKxt1quzfuHt/D39Oz121vwz71fUX7Pv0s/Pnufp/9TZX6laVV2KqcqqfVUdUdv7B+qT2geqDowJeDooP9NWE17bX2tbV1anVb6uF6af3IofhDXYc9D7c0mDbsb2Q0Fh0BR6RHnv+a8Oudo/5H246xjjUc1zu++wTtRGET1JTbNNqc0tzfEtvSfdLvZFurU+uJ38x+O3hK61TFaaXTW84Qz+Sf+XY27+zYOfG5l+eTzw+2LW57cCHmwu320PbOi/4XL1/yvnShg91x9rLz5VNXHK+cvMq62nzN7lrTddvrJ27Y3jjRadfZdNP+ZkuXQ1dr9/zuMz2uPedved66dJtz+1pvUG/3ncg7d/vi+/rv8u8+u5d+7/X9nPsTD9Y8xDwsfCT/qPSx2uPK341+b+y36z894Dlw/Un4kweDvMEXf2T98Xko/ynlaemw5nDtM6tnp0a8R7qeL3g+9EL8YuJlwZ8Kf+5+Zfjq+F9uf10fjRkdei15/e3Nprcqbw++s3nXNhYy9vh9xvuJ8cIPKh9qPrI+dnyK/jQ8sfQz7nPZF6MvrV/9vz78lvHtm5gr4U6NAihkwUlJALw5CAAlFgBaFwDEBdMz9ZRB0/8Dpgj8J56eu6fMDoCqPgAilgMQcAOAXeXISIvoU+MBCKEificAW1vL1sz8OzWrTxqhG4BcZH6K8Hp0lwP+adNz/Hd1/3MHk6o24J/7vwBksgi22UfvoAAAAGxlWElmTU0AKgAAAAgABAEaAAUAAAABAAAAPgEbAAUAAAABAAAARgEoAAMAAAABAAIAAIdpAAQAAAABAAAATgAAAAAAAACQAAAAAQAAAJAAAAABAAKgAgAEAAAAAQAAANSgAwAEAAAAAQAAANAAAAAAI6j5/AAAAAlwSFlzAAAWJQAAFiUBSVIk8AAAQABJREFUeAHUvQm0bUlZJhjnnHvvm19mvpczZCZDZjIIAkIqAiYCDYITyCQiIiCiKODQ1NIq6Wq7rZKqVb1sq6tW1erl0K2rdbV221Vd1WpriYAiyZyIQAIJiZBAzplvfu+Op7/vj/+L+HecfaY3gB337v3Pfww7/h2xYw9n8Np//OvjNE4z0xxxeuJVx9I/es4XZvqYEI5XU9pZS2kbcOyQ9NrRlHY9NKHeYQwGKdk2bCD5De/Dx9P4vz3ZMT93AvlYcjhu6AR6Ko+6vlnDZvy9j7go/dZTrnK/5wLmHa1+3yzFouneyx6W3vWMV6YdHgNPK4PNNBxulqoNKMOhsOMEuLKzlW56/1+kh33pDpn8/wou2qrDGEw06tum1nwMbWzPfMScAGgdjFcQTL4ZPoIf0GPA01emdPx6yHe1VoHOnTAzdFD7eeN37QS784HG/OCvN3CUT9Btj4jRKvMgPfuLx9Ozv4STSe8R6Dsq03jKezk4zVvLX19dS+99+os7wdSX09j6BiXwgP+t0Uq65eYXpU895dtgy0j7h53aei9a2pVzHZ52r2ynm65dJqDQiRg4nc2DSUG1sSel9W9Oad+XUtpzb7cuNjKBZRC+rE9GGPBtBNOHz3TtzwvFTJl6II9E4TteeNTHZkHoeKBf97H70lcPrKXPH9pNQ+uIGTnXvRXgXJ2Y/buf8Yq0MfLydTyirWM2rB5p8Rze9sSnpQcvvTx923v+LK1urHc8iKDp1zupmOeabz5VqOJ9cE4OT7v2aFodLVEcCxoG0IwNo9d4ey2Nj3xTGj/wFEwLMRUsSR2RDOGCDe8TpzHiLVG2ksc0JB5q4OZavGmwKdOUYGJdRpD97C33potOb8F338E4W960+izH/9gTbk4PXHJFv5G1he2yHGgZpTRaObzn6mvTu7/vB9PRQ5f1+uqrZa/iOTDbPM7BVce0M+XrSBqiFACNwobS9oxlpnsclXbmbXG0An766jS+63kpnboafQ6dlv12kdEJauN3YU5/3lITMGwQK0yAvdM/K7DrzsYHsL/ozE762Q/cl4bwX9oc1t9o/O7D16TPPfqprOyU1BRYWhMFz3rHDxxM7/2el6UvX/8Yac6EE26gfS68mZn1CLt5cV7X/4cRqqsqWgEjaGdMnmFCOrR3Iz3hquOBMwtFZ5o1KhXZCFn56GXXWQjArX1pfPd3pvF934aAxCKGJXVOEsSVHN9GWW85X9M9+XdYAkd5AhZe0DUead+6zZebOrgQev2DG+nHPvog5DD4B7BtrOxKf/1tuG4aLnLt45UksOJzR1ww88nbWllNH7n5BekT3/oskGijfwB1VRnU7wXF76tHrl+uVx6hWNdmg3huesYjl7h26lwzIUgKHUck8kGXBQunxXvwCWnnjpditLrcy6bOSlK4w789X9M9+mNy2Bs4WaPoWOcQzyHat1PGJtg4OkX5zV86lZ5/x/lenfSyLAne9e0/mDZ3zVokokN2oAwMhjzYKbOsC40Pvc8/8Snpfd/9krS+e880F8Hb+UdjsYXPz0WaXYiZRf7rtkZXaSLa0EBsjO941KIBFQJDwaGgsSkggwg6vHYiPwab9GA3Jn/90rRz+6vS+J6no/+hE5YNTRCmhOO/vIDTPQXXBPTDwOYzmQdJEyztokQbTJK/5m+Ppcfet2FtrTPl1xt++HHPTUcu7b/W8dpmYHUWB0TsQmRLHvkBv+/qh6d3/8Cr0tHDl0IXAu9j56u+s3xKthz0OoU6sI51DG8EahCrW4/tIw+fSldf1L9Kw/arCZ2qCZocMAqcCi1gLJgYYL4xAG3LAWd83MMaf+XmtPOp1yLALkZWOrszV+BbWHG6BSPUOSf6VQLONmqDqG/EKuWhDX2EraGnBRNtuEjxlg8dTYdOoz7fgPTVw49Od9zwZBwLZD5nG4y3rT+q33hj5VKj3RgYWdaFlY+Jx/6D6a9e/Ir0pcc+/rzXloeO2zJJNl2oIagfYsoHdW7eEq2a+AalC/jMRx5ZrGwKkEWggshGqRhIuK6a4EF+7Lq087G34PoKF8txpPr4+ZjuMQiYHLKJShKv0aFuEzCdYIqBBTwHU3GamzqQPCQXY5Hi527BSiqvCUP7X2h8fWVPuuVp35d2xjjnbqNQ87bYPsTj5nUa77AOlHVhDaoxrqvW0see84L0t9/xHMTwAKrUvfAb82m3/nybull9Ko+LSd26t4xIQ5dpNEBAPWqRgOKaBwNDU77psBswsLHgyqNSWaSgH412PnKNN/emnU+/BIH1qpQ29qF0OAjvxbLzOaUmUCxI6FB8oBM8BlOT6Tza1OmzZwuB+agj2+n1t57sHKd4WM43zicg/uKmV+MQrKYhAmn+hhJYIdgpYxuID574puf0DPyOJzw5/c1LXpbW9+6F6dn/ecE6GfZ569M7G14doXQWyC0zswBPuPp4OrBrgU4bgqIEggIiwE4wyaYEoQek9MsUUEGHouLsPb77MWn73W9K479/JG7mnst0j52byeHMwAm61mFI+xYCwngNPWuqV3wEX8/+0kb6nts5xZ7RC8+T7GM3PD+duPgQZgXIbYEtn8lRb2sDgFhEMdmk4MfRKBeXTOebTqbp5P6rr0nveeVr0pHLr6DkrBK85WwCXMZRn/0sXr2GanJRfHUaxz09+/oFRqcFR6aylN4XSOCNpwYSFylQfE4juHFKdAqj1b9+XhqfeQlqM29VqqlwhwyBYvxptBuxXdT5CZvgaem5wdTau+9XfXI9PeFeDBnM77xvcIiDfefhx6Q7rnvS/CleZwoIW11jWYfxdiGI5RQ78gLeNyU8vX9/+uuXvSp9+bHfZOVjGS/U1k75cvAvl19nhIoOuy1Ra713bSs95eHH1DRTIKd606d3cRpooxODqehr5PFVPY1IFnAuM134ZxBx86Aa7MK9m68exLO2z0g7+38OLq+bUr5pbAUO5QwMh6buMuvsLZ+yKVsTHEsHk+wBR+i0b/3Qerr01A6Kdr7/Ujq5djB96Ju+B55RFwXIopBtxbJSH53e4sraj23liOlQLBrQeA6lajw3A76N5wA/9oIXpY8/7wV2L6wRZxdVvUPTZV/q89GntxiveutcQ/Uau65ODDddd2z+o0YlOEJQaQQKME/1qON6ChoFEWGHV3XH2zx4KJxGJ8JTYeQcXJrGe38KwfUCVAt2cxMDgskh612SeI2OBR15YVMARJ7jiyxClCyJ9Pg6gHvV//UtG2k37wr4sTl3OE7bg1F6zxN/KG3jumnuAkRndEI52PZtWVh+psjPnMwuNrLNMI8KtOvySf/9E5+U3vfKH7LrqiynzuwtDhIRn2cX5dGuH6/F4FBSqaZwZgw5/0wPcO50j8ERgqZcOyloOnBaIHFVz/2U4JJfTQNRJh4UbbyO+hgequ0k+Nn1AgushACbnppAsY5MbfGBTvAgY7PENI823RB8PUFXgjMGk3CH1+G88YZbt+y45KNzdnsdUxbro4/67nTq4CVpgBFm6a10fjhiGdkO4JFdEwjjU+bcSC+C41g/eNXV6d2vfX168Go8inYBUl8x+rPp0xyn0RO//fm/HA2o1psguGz/ZnrNt97TK85MNibfb+IUbjYc2/tQ0OGjRKbr+qDHPbyOHs+QDKQ45VtDL3vvwf6yDS/GSHUT8jmNzvKVRocdnMmhddpAk2+NEvUij3zSDhUkDb3UVK/Y8nzX+s+86/Cmx8ZokD57mPJzSeP0pcPfnG571DPhhPUAWHIbIAIHIx4UT+EGOzmlhFYV7AoDKHVNSfwMcVMh60V5VsSz0qvpzic+Me0+cSJddM/d2b5n7557JJllh3Wq9OwEeYRCC9pfM0LFYY+tPHep3ALJR53OSMQAq/x63US+b70jUjtKcXRCMymYwug0OBOme71tsSuNd7807ex5Aw4Ul9djUtMvCEuAUR+bOr31lEl6qWCSjz6/vA8f8vrBT43Tk+5Zsvc30XJs16Xp1hu+KzeG2nNJOOiMUHCl667uEIWyQ6Yt51hp8R1ydpR1++EYbfHxF74o/e2LXpTGQx6HxgHoeX99NtN483xJPlQMWXlUyQBjMW++gS/ATUkMGAXFVIjg4XRQQURougo2LkSI1+r5VC8sQtQFCbj8eN87Ot2yWl1Gj0vbe9+OYmDVyDpv0KFC4fEgIVkHJuK0QeJTttDhqbN4MDEPJNnHfDs8zxe8EU4ub/vAMF1xAmY0XXLbHK6m99/4Clw3sc1hfLabZYxydQoAmv7QwSyuKLPkiOta4JA/EUDkNZvpiQch/r/0zU9Kf/3aH02nD06ZndBmydRmS3rRVEaoTumtEdgQLHTeHnP5yXTlwY0pftmYCopZENc0CqYmkBhkeeSSvQdUWZQAX2fONqh2YXT6wqEpZROb9SCOemGE2tn1WmwvA+3L66UDU4edFqnwnCZfnVsB1dLiAy63CNHjuy+/hrdvc5DefssKFinqsdIxmwc/fO2L08kDF599IHkA1tGEdWC7NRvbkinyMyezeVxNFiDVJ4IsyIP+kSuvSn/1utel+6+71mxoF/vurHaQboSz9OfJytPmrFCJn1BZoc969Iyl8qnB1IwyNvrwbDgjaErAUY/21OUiBWK/DSQPsMHGvOmenyVRSR4HqyjA9srT0tben0GMXOvVVOBQR3iAZuyqBPNoU6X9AlsMTOGCJYiYZ/Dl+DVHBunNH8E16BLpjkPfku6+/PrlFyAQRBOLFmwID648KrGc3FBWg2p/FRBM47se2ZFeBC9BSNtxWt+3P93y6h9Of3/T0+jN0iJupLsIXMTf6IlPf94vU7E3uWAFL8r/xHfcnXYBTiZ2eF9QELRFBQYE+DbCZNhdbCDPN9jlkSvyGEygKTM95F0WIVAKwwHZsJ/AyPlQu8JXS9pX6srbg+/E4K1gLBsPt7+UjUzIjsvkHbjwRDss8i69+FQPdp0gwYmjBBB9husm02vkvLkN/YcfG2LpO6XbLg2LA5D0paO7r0wfvAGj8wptzz0N8BmEAW/AWBNwF9IFXqCwnCwP5ItrqXtvuCGdvuSidNnnv5CGO4zys0u1fyxnb9dQfWeHMtrC35MedgKPGk05UJq6aWpmo4pGFwZF3spUr4xSkuURKAde5AEvPlG9KaNT2oXrujumT/dsTLLW6Y5OKJj/U4jOuPLstLkbjy4N+aqCOoVDsyfuWwwA8hp6qWCST/PjwdLhhXzFb/KzcoH3ik+vpW+5C+02I20Nd6f3P/oHcZ5Cu8dR5RxwW5FjG5WNbeK0/LJDxSR5ZEdewPP0jf7ANH4DLY/Ku/NJT0rv/7HXLXRdZe7outlAnlXCEayu2OX0V/ioxLOvnzLd0/SsQAYHgyJCD5gZgZRv8MqOB9qDCTY21VODabmco5IH2GB7xkIJ68bqWa0IjBBVoOQ7w6vSxu4fxxPPWGK3zkvbng4deU3nnh9M9BmS7A2SHwJUsgV5XKT42Q/sSVdjtIrXBBH/4DUvxY1RrHL6dPn8QRSdzdu7oU48hmh/OwT5MLhytZkeOFWn3z8c0qfViTClI1fhuurNb0r3PeoRU9si50fb+Vtsw1l4fVKCBerZ9mNk+pbrTkLYJsaigmAW1GIDdbTVoMkjlwddCCTq5kUKFGra6EQ+zsr9yQ+eVYoarJz2EQEvi7Ic3wjcWntR2tj1agw8F0HYBFTQNYNZu1bX6OCv9R0DZ0bQdoKu0du9NUz/6P370m57dpkZ1u32w89M9x16RO7cdpKC+HxAtgHrEn2RrllXnLpMUZY5mW2dm3IomE6GE8FGYZBXfbdFWTb27E0f/NHXpDue9e0hh+mouaN5zzbdqiupz/K5G41Qgs949HF7XaNrBso6vwJjOqyjjwedTREVWOIB0l8JONL0yXxQvTAiRXyw60Qaf4ZTtMnERlEyHLvMywjrZ6lEkziZvz16VFrf9WP4ntxj5cYdTA+IidEpdvYWj8EkXJC6wgWX4D3s2Er6mQ8e6Jx47999bfrM1TfnusSOfz5wtiWbjWU1CFx+RRcZ2pm8kkAUHWdGWrotz2jsCDUyRZ7jvF/16Re+IN368h9Im6u8Vmf+/VunwVjIs9jsqtTyRrlo36kc6O/om+4tNDJx1FGQMDg86AqPI9AkT4Fqb+9OCSQF1WCAh2F7ExuDAg8Sq1imyXdulYvjeian3mAPRqofSBtreGCUX7eNQRE7OvgTwdTIS4BEHzFIIr+1nacX9YHz4dZvuWsXrql4AxsrYKO96cPXvBwz8eHkCh06/sSq3TI863SWDbNqNgSYAouQ5bTjAhB1xYQK0YnRyPOY5Df59QYWHeKZ6Sd/c7rlTW9Ipy7BbYIFUyziojgWJZihb1axbMpOdQVecb/h8vbLQZzqKVhmw3JfaWL08WAKwaVAKr45ndNUTzAE2AD4+FN9N3PBZxVQ/gxsL8r4uT2rntFZzW2kkdW3Rk9IZ/CExfbo4WCE0cODYOlgUgAIRp9nw/NysMMymMb2uM4gvfy2A+nJd+1JH7nq5WkT059O544d/Vxwtpu2GDTisT7CSz5khCR5ZEdewCeDCkKTC8JvCazAA/vYVVemv+F11Q2Phsn8v1pwywAe5kMboVg1U2X+vpHx7OtxC75N04KJow0DxEcdG32KLvlhm+DTVsHJYOOZDQWIWwiqAfHdmO59dvKBV0gmUuEBEZ6DLqsqAJ0y4OEIPGM7gwPp9Nor08Yqn3ljs6GM2OYHE9RiUsAI0o9wwbPkcXpjnwKAvQLr7R/cn77rC3jhMrbl+cTZomxUbQoa0RNQAYZ2lczahwSS86YHTtWRbhfCgfnArpTFeTDd2IfR+rU/nL7w7JtLXl37ef5hRndTNhuhyijVeL75xmZ1j51+2rWTgslGnRocJZAK35+WUICFQKKuBWIInjJKsRME/mAw+cUl6/pQY0tlYPvcQkCdm1uDaoWT9aJ9FsvCjI21gRXAU7tfhfdyLjG6s1N2YhqdA69vZDtvPAUiRiYLJAaUjVI7affOevrNP/0v6TF3o71Ynq/LhjqrMxOyfH35xnaSXDyaWa81xO2hxP+Wb8xJvZwnDFQW9z3G9wU/+4LnpVtf/UosQOG6ask/LwwznNjKCOV5lch7/FWn8XR5fM2djcJrIgXLdGgrdyVgaON2FjA+Upkf9xF1FTSEEfez6sCXzsefbad7bGnWwoOAjV4pcTucrBD0OvbuLjvJrs0AxcKrICd34Vt1I7zZytFkkU2dnrrCBc+VB3sGUAkmKw/u26b8KYCVne303t/5P9OeDTQe63g+NzrrDZgQROrQgkUfx8ra3BvWfIXykb1IWS1oWQ7oWz+RnfPMB3bUC+muJ3xTej+mgCcP4T6m6UB4jrCMUIx6i3z3+B03NNM9BcUcmK+bFEQKJAQOg6bYOh0DCbLeqZ6mJwgum+qR5urebXF1TweGrcGUoSgns6QwoeW4gYgHH/SVRb6XEbrrmbVnIrC+F78msR9qTWC1tHXyEEyiCft0l+B1Awn+EFyjxGtfrxSwS86cTu/+X/6vzCL7PG2TN3Wn+WY9XWaB5TRZ4hOGMhOdNhp1+DKLfnoDiw6pXNOJKy5P73/LT6b7b3w0mNEBj/vyfxMjFLPix/+f+egQUDbVUxDMgRY0fYGEgDE/kJXgqkHWmep1RicUSI3jwTUYdZ/di21kOHaZlxGFRIkgayjWNGsJRr1oX+QlmKrtFhYqTux6BUarR4GJTtIXIAoOwahzjjwLJpve5bw5Ug3TBnKYfLLlKffclX79T96Xq8MKnofN2sz8hIAhbaNGw2NdY54WWGSEFOViR57h2PGfxyPQdnw7NByo7xRdOa1wa/fu9JEf/ZF0+/Oek12Yb8jN13LQ7kOxYHG76REn0u5VjY9sBARRGV08WHro8nhRz3L45MjlgSVdD5YyzSMdpnxc1bPGAW/n8/FmLmvPxvFwKJ0+80uQSC7oeqVDZCdwI4uuvR08ZhOSZ4sBZjWd2vXcdGrt2fASywblGDBtwEWZcMFFg86DSYHFQGJATUtvvvXW9IOf/EJuM1bgHLcBPilXfDDT6M8CBjwLrkZmegowtLns6MOcVP3JwKmyTn7yUSAQw7FTWZgReU3iddXn/6vnpo++7jV2XdWtiDmBRReyp7R/vY+73nx9eDJiwWCyoLPgUPD56FOmdYFvPNKj9Et/gI9ULphUHdZrBw92njmKA4LUaSPIWEn7R+dkR8t4zWTMTmsqhNABbh0fiMnUmSXDqqN1WAY1uqvpuzsz7cFNFXydlixDp628ln825KJmluNkUbBuP6Q/1ktyWtCO+e+w3IRkIgkntI16QPhpl42dU+nM770j8QYAZUqGRwakIgsUAiOhGYY90K4s5yANg67Q6ommRXsCs+OYXdleuusfPeIrreDwuDJ3O74tNKe50eiBczNrdxI13ffYx6Rb3vrm9JTf+f207777qmBBDG6Zcd5YiYv2bKUnX6fv2lE8fUQqr2EgkLpPRGj0ybb5E8vi5UDKfsFbMKGE+UAB4Q/gbZ3KhoXvftQNIp+4W08cbJP5Luu5I1mAmflx3+hI19lsTiYHBTO6kWWyakY7cSf9Vd9tx4v2xC3BkXytDPem1WH3yXyTScENRAq6J7kLMGvYHrvp+n5kXEF6gh3/qrAx/aQYFDo2JCY2MMizWY3kzjNdx4PPiJ687LL0gbe9Od332BtlvBBkDe1pc8vDPT7z0Sfro0YaSTTKdGgfcRhM5bpJQZMDqUwVZV9Gu6AXazIFZ/ksqR3wUt0WNuMXITUyEY9HFAvvQBAKwpxJ3puOybJf2RSdIlOuFWYLaWZL27tN5khflOhsJ67KJlpeLY9QUckFix4Y4gmujS7GCRqvxiAZTwI3Eiloek5EnjyLJ1j8yr/7VUGkJ9jRD3XiEBJ1op5cUmHulLA3sGhYvEwgW2v4JPTrX5u+gGlgTDSZtlEvj1C5VCxZes5jfTFiYmSKI4sHU1+ARDsEUh65gm0JLsqQ/ZykOrOdM45PXp2pwSQ5pcR1PAwvvqNWZorTQkqNh12WqUuLzgqtXaGLXc5n0l/my7e0ir0YgJbzFH9xZOqzNTc9tuRzRrRr7TC6qx9+U867WtvKjG0qrvSUtzeWicUT9Jp0ZPJDKL1aJ87F5gQTVPIMD9b8Lx0k09YR6Fh84gqsPH82O3Bnps8//3npoz/2o3i1B98kMV+WmfudxPMIRT7cXnNoIz3yUl7QsqE5yszfuosNHjgeNPN/TYO5Tk+Sqk1YyiFeIts+yda0fzf2w+sGssvCTEWecPqlF9HuLPiusqIDRPgEFCM4EquF1UvFujqg8n/xRkQ6Yra0+K2u9ATZYXetdN8jq7Wt+eQ2il4py16KLyDCBauFawedWDbp52DKgRTl8iM9FJtFz/mRufAGRdN1yAtOBZYymQLvv/HG9IG3/nQ6ceXkJ6Hb7Dsj1M03+GIERx4tMMyA9bqpG0idQAwjUuFzmqgPVU6phNj1gOYDww/Xb+AWCyuiZLi3k/gZxn1jYyJ1DXlqdJwtn51MG5nKWXShLLyViU8XwrsQtmJ4Ph1dF0aViJtJYAgVlK8BVifXVvCKSmMgvViGwnPtAiDok2Wet4EU3EikYGYzUuYkVzE7GROyoPx3KLoDbTUn61mBpRtXeWZkf+rSw+lDb3lzuhs3g5mPtpyHZW7lKCPUEMufz34MrvQ5KjEIFhidsg6Db9Km/0nyHKidJ8mnVAJFDAeqds6tU1hlCzaSdPWpkLWk24FGyLI6c3bHUnbSEk1YcEdEVwmwRpbJqkm/oiRrbTo6EpLpSfai6VC8FlLHeK4zxCLFCE+j9+nJX1eWKdtjJ5l0i39IpFN5Vb/aYWpXCXPTkHlq1xtvPlTRYOoGgcmws1GJuuIF3HKeveN11SfwHODnX/h8vNldL1fMPV1hKyPUN119Jh3ez0dTfLSZA3NQeDDF4ENw5QdjQ1BqlJOe7i9xyO1JKiBLGLv9CNO9zbCin6uAfXCT0biXlsPGp7I3C5ORE3N1jSKr/kzTDCMvM2zfyILEnLq4g4snaHmYBvIIFZVc0FWsIOIJFhkQ43UEY9zIP4iFqLUsK3llRKoZhj1QyagpXNCsnRBPMHtmhDCYutwuBb9NIJncdi4owQEm/xvaCkb9sgGZCCwa5lItsv/i856bbn0Dr6t2e360z1sZoZ7zOB+d1OmnQQuYyREpj1IKRg8mG7nIq8FVHi9SUDU1KPVi+VwmOMA0cQMLEjnlTq/jQR3puYIB8SrMmGgqGY6dJJIJUiC8hcU+5GY6wabqyHrSX9bJRlXLnGbPqigoyQWLVjbP+oXZ6LtRazuy6ykcKyRl1dXJVJeXMxFPkDm2PqqM0nwMZwYTVPqDibZub4VlgbUB4T8zN940SH3ILLCkQ2eLpwcec2P64M+9LR3HJ6EtK5gS2gi1e3U7Pf2R+O0hBUCBHIHixsDoBkixcX59MJZ6QdcCEbQCiaMT8ZBEqT1YRPGIbHExwtKsYMoWxQ76wtuDTFcmwy7r1PxkQ4HwCSiGlSnvxGph9VKxrg6o/B+8VV0xuzbidvOO3I6+E+JF7wPc3FtbuwT9LHRWd6RWKXZAhLeQkkmeSsSVO/evg1HycIRibPIhS7MLEZbl2BNRhzGctG80Ft6BIIx2GAOLNgum04cuSR/Fc4D3fMuTYZEzsBHqWx95Ju1eiQEQAiGMLgyQGjAapapuXvGLflyHAUo/DCIFkvCm8LWd64FhWYeYs26Gm7lWfq9GdcFK5apFaLiJgk8yPWWrHjsJoCe0QEdEU0O46lDoIunxY2WArZRVqJinC3tUina0l56gZxFB8F7LlDDtW13VIkV2LR+CrIpwwazJvbdB0Mlc7ieXwcntpBxrxb9kOZhE1fzJKaORCsaG4L9Da1gWNNIMoEIH3Pigl0i8rvrkq1+Vbv/e78GTK0M8Mo3cn/dYjE5lNFGATMLeJXILFA+c4sNpBRIDkc/JbKPECiSNVF54q3PBa+cki7IhTDft/hNbK/PIZ8ow7sVzPRPRpx+xbJbt3IlydLI4KHTJB6Ji4468BKRaWbRvtbMMOU/4K9lDRmG3M074DAyhglYmz7jyJjFxhligGO5spu3t/BOktSRwAiXpCVb/3oJRYCa5zSM718kLRZ3uYamC5ngFAa0qSVRkhAUngkzYlpYZYH7eC2znUUXyqeWpWbbYl7/zZkz/rkrDw/t20hOu5mIEgwBBVKZ7PbSNVj4CmZ4CyZ8k7wQXZK6fA5GVwMZAUjAhWyariyM8LKSV1Nk43ZOk6EMp68a9eA5NJEt5rbJomfFGp+SR+SpP1Q0enClZkJgx6a4MtDPEp6LwtuNFGXFLUC764gVosqBTtSNWDag/Wj2IN0D4kG/2POmjq09KOgW3k8Bkz+zUiX28Uck5kpkF0W/1nbVIM2PzSZYFRIWVn/WskKYnGgRHJRuZ6KjaAls6PXTjDWn47BvP4N0ZD54SMAyG7giVHy9SwClYBPv45ImPkiqIbIRCWX2kYh0seX1Eikc4sule1lQHJL/YkvAknkHsJkPJ7UxGox6NIqt5mL8mD0lN5jbSy1CUNLMDcZWzaHdvIHY8yQWLHhjiCVIm3KCIYpSRyBYuyM68guspvqIoniCthQsax4kM+kfUWCcbMHJRyl62YhjtfsnLaGVUzIVklA0I/5sga4Mu60PRAivbeEbMcuk0/M4b8VZuEzy9tILDgs4DyUezeoPXAzHodr5JzhGpZ8qnOrMFUKWcQt043ePqnoKJOkXPsciTrIV0bDzssqzmJ10KhE9AMXIJbW8s7KIo45UjTDCXA1T+D96yn9jxZCNYlHtss9+sYfpuVG0rJj/iCGYfaBdcD4wsqDiMSLuilRXbsI4sspBeqZOriF/1urYmD0oZrYyCEcE2GTiZb2V3nQmcfVGdTzAGlgq3BBxex6dPZoxMDK5uwCBoNC2kTAEmHqHz6lQPecRA0mgFqHrAyOprZWc9WSwnNv1RI5KZZ4JCRZ7wHHzBp0yCVdGVTIyiU/PL/ipNTOot7Gpl510dUPlfORuUjpgtLT5hlAkXND0nKm8Sq5zqWbUyGX7uZmUFP1bnYsEJbQji9an0ClTjMWaQxM9U17bIg1JAzaSlix91pgaWYG74ZteZ7oEjHePL8+JwWIIjBoRGGMBOMEmnjGjd4FIgGTRdFCQETwkqDy57adDKqsMIAq0VG2wF35LbPJnl4mcY910btgk50rcssuuiKJmglAstfUJnVlnAGlmVlKzk2iHKFZW8cGLp4IumOOKmHhhCBaN+5U1ilVP9R17JZ7QnDUf7O2XIet6+dhHkkRLK2vHVHXzMdd5NFRSd6ke5FhEQ2JOtjSIZiDcBwTBegDYq0Va8gNPnEgnP8eA6Z+YIpaDhyCPdzMtPRHR5OUD9SfI4KhFncDUBxsMCbknCCSkp0z3XyPK4p15OBn0nnouyDpiZH/fSkKxCStT5q79q28qqZJpP1MgdVX81PwVTta6ywoOhbAWLDIjxgk7Vjli1kI8Mw14CqA5WD+C2RX4TWRrxvpBUBYt36+9dbqZqIHWltfzFhyGtVrbP3CADOjn1IzPy4ZAmExsYCiz2VZM77BZmJoWeHwNFwZFhnrJJ7jIbecKqHu2dV31BVwGkoIoQQWWjE4MrJiczyPvNk91npqQuS8HfuO1OiS4o/PTffCj9yot/NDe4nyCZYS6HSiM6F0XcFsaCxmCaqgcBZa//hbemN/zi26L5TPwj7/tgev33/3DR6fefuZIVZUPwogeup3Y2HsBx5ZewasWlL0h1w6mis4f5UJswGHKKNuQYHZgZrYw4rXQXcppJdz1GXxvwZ0Itf4cYSXmCzt9RhE+OrI3cCkAeZeyvrCf+bSsZzkYw5WPnZ1B0YZ3qgT8RNAyyNpDIyz7Kk+QsVDMisaDl+xDAWWxLrAeQTGf+Clf3mumeNGgjW0Hz8/XYIcOYZ8YrR5hgLiuo/N8pIXVix5ONYFHusS2yJRD5FaSpjkLhFaTWkx/RHOJ6il9UUpxITdB8eQeMdcp5dHtmtMlyKwhRS1letdpgqhKqgyJDm7MKLf4syL5qwUQ/xN0f+Ry5FkyY8nkgTEAGkoLMA8h0OJ1zvtNZz4PJbFAIBRILJJww4pQxARDLlB9eEPxpkPXTcQlWGmZlu8yp9NcDU56CKjnzFq8LQeX/TvGkI2ZLi084Sxb1+nDZtjD7zVzJYkaF504HwxUEVX6SopWZL8YMUjeYePxckMUxi6xvRi4E6JZoir1cUtkMQomAWhlMRoI6GZaylaCRHDo25Qt00VEegHNS7zVU5/GiEjQckbhIwUBTgDGImuBSwMRAsihHQQHLVE9yL7/KCTI3AABf1ajJJOVgZCpLWe+vd1KWgsxfeBfiBCFGKKRYOsCiox+pR/uoJ/kisM9OPMFSATgsvILnE91guAuLFPwRgpxMD53b1ibELFC9vjAmELMPmVWUtvFkmk2VX6eAFFGgLatWWnyHnBJm3QDNh9PTAkt+Z8CJEapeNylociBZ4JRAEi/oQDbxJLmCxmH+UCVKQ9oLDcwSoR0yZ6zgq0YbJ3y0strnNqByx8YIcczVBd8ptwxF5WxFSaZgEJ9awhVMscCSFV5gCBUsOksgss1QFBz0o6XlTSyd1X1YpMAr4bnPR1MfnVzQdWullItFitzqKr+YobVvUXSEAFtpXyoZzyEzN3oadL1OYAVb2k9J4RqKQdINkHJt5YGURy4flTrB5dPAaaNTH188FCzXjfuauLrH6V6Wat9AM+naVQ8XFsu51rwr1pSx1CCXR3rlYAe5ZKXkYIgnWGRngchHhmEvQeNTbINOEPBrsUN7PAn9JaRcJx6znGQ/kw5K7dRQdjZjrG4Lu4PQj7Yg6B2NoGdlNX0StO2DztMAQL1Z6Y4xny1REPXcpA3L5HnkitM9D0ALQgYZcuOmQCk4SgCcv0E0oQPdXEYvqQM2YHe6l2shsUHsGutZVT2vslwOlSYfD2ZAjrgabUXHApxLMPX5i76n4V27THV52VI8QauRE5UHXSxOrOB6amOTv9GF2pqw9vqOrmlk/9qbPCjlYKqMgrnLQheEniBExrS1732acyjE+SftaSO7FqdNy2PfpUPjY0d/xMlnnvFKhPabEP/Vdhp/fEcB5YGi1b4QSHVJPAST6TEQyeN1FXLoe5K8BBUKwkCLwUaZFdDDgmVFIljFzdzTmO4pERM1DUr3QsOcv0oxWa6cP+T5v1OcalW0DGn5fbZUnNDLbpbae2tXX8GpUEHmKFwwZjYe4ilQvO6xuTH909jUb22NLkxdJxVG1mcgeCqSglDgCuSxvwMWEz5BLgqohZwFGQlXhpwntvxtduczZwUjBwDSfYEFttynr+Ljo3+CZ+qOkcmnH31RIS+T9wUNBjEFWAkkBROnehyp4KwED7wa7hB4+ch/0YG+B5cVI5clNyTMhni0fsO/tekicK16GbpRlJng67xT/l2IwweGeCqSaI1OoiWPMMqEC0a9ZXH5EIyFLLzi1IMJgklZ4OFDL/wmxfa2v6xW7DPS2hptu9z9e+UlMkI+RTEImQU7PgOoDlHBiDIqIcmeMOAl2HjQqBwhg6sTWNAx+8wfvw+j0segYDrMxB4nVsDEUYoBow38iUAKvBgkPXi859QNPJSMQcUCIjmwOm2dIqUzV5BRzxT9YNPQ0/1fvVNoAwdp/yWXpN385fMF0/EHH0pnTvLjFToaboi8j9ybP8+r8nZhDqY2m6KTC1/rCkXJik1gCBWkTsSLzQJItgvW/aj7r8HU5zqYmni4gl9HHG9hkrKxYPlyu1Y/GdPgoDyL3JDmWEDJ2NbpgeEei483ftgohY0pEUBqow0YlpGgO3I902dWpG1zPfZt+qPsXnzU+k+xPUheNyGaYnAoiAjJj8/ygY66CDib6jEjCyQ4LrjzjC85YDvl28yhDYklwlXc4T59fDKYTMd30nczq/c/eu63G2TEUZ5VWftB+vF/8WvpO172CqnPhf/bf/+r6b1/8B/ghNMCOmN54Iv1CRNoy4Ni9+jxUmiyq0yYKwdZ4UBFWoJFJv2gE2Xz8ezR9n3O5R8liDpTVC07jbYkBisHcOF7FG1Uf1OstbU2bJnMjYdpWjL9SYXihog2qRUhZOJRDcdv4gkKBJlN/WKQ2YGEISH5gnxt8MMYlT4CfhiVYtFX8lRvMpA4KpUnyZtA4uhVpnoxSBq8jE4N3zrmur9d6KVRGwxxPcbv7jGJZxA7P9RZ6PsqyxayKUoTjCKZi8g0Q1G1XDnH7EZlq1rVfex4kgsWLTDEE+z6BxUFxXBxpM9cPEHz5kSH59mIF+ukEoxGB3DOPIp+w58liMlPkIGZUey9wweRGWY6REN0F3Eqlk7Po3CBFigwGu38JaLo/pj5JI7I8GCyaZ2PVuL5KGVTvsKDvunCmQJFMIxInRu4gZ9Hs9p81h5eLv40ynZz7STNFtLEeNhlmbq06KwgO89iaSDfOvLyJ0iHljMYkZf54GnYMj1yJ/Vo2NpGPZO5Qp+eOZ2zK3YFqXlWVk8bBr/Si3WK5eSHXkZ4Mn1zK/6U7JRgsoWD7Fx+lZWNZNGxBA6rPjCNFJrO+YBSQvFcFyiQxfiT2D4KpDsGNKXKJBYlGCA+nVPQcHRqn4CgzHXHY6zqMUjixqBSYAlOBBIyJc+nerFEPJRreHbvVPjuHjQt5T5ZD3axg0LWqTLZxE5aeMVwPlJtiOXDI14Xgsr/HafSEbOlxSeMMuGCpudEhxcdzMGLXUG6eWZzb0PoBLXiWbxpwVQU8XjSCE9SaJHC7GQMJUNLb5/Ma/Fg8hzpkJsCiwQfjFWyDJ0QWzzCgLMF7OFZ63BQxkrzzvsA75aSnE6HiBwGUxylwIq8EkjUcd1pweMBtujoxGLlOuUCD3GWWW8Wi6YFU6yicMHSSNPrPVMiP4Iq5yTEIYhK7lUsdT7R0d5VcwP4gZaeYNSvvIoVH4sgwSyg3lTWlXJZenxF/R7xBGs42gXeVtraxnfyg7Fdpph2ZgYRuD6SUd4VmMUku54ATJ827dSPRta2FAJxv7m2pMGwQgnSR952Pgf5x4DXS0IQIZnfQDuap3w28nhQKWjEIzReDqb8eBFOB3H0CSNSd4kcuViQAUpnq5xKrAjeLIZvnqqltLr7zoBp5J1kmR/3VUk2glWyGNbnVb4kUzCJT8/CFUwxN8kKDwzxWlh8BZ2qXTycE5LzDB2TfazxGOm2TlFWyuv2AyylD3gttY0eWQ8rpK0VDc4ymGhagoh42JRnzE48quHgdUYjO5goB1eYP4IZ2NegxBRsMmPGHrp5yqcRCoGTFxticPmohMCyaaACw0ejMu2bNmpFff4KudLRB9PgBBobZR+i1LvGe9KxO3elzfFxfCAkK8Vgk5m1D3a5nbJGxl2jyKQjy8WhfKs1o3/hLaT3wlOkRV6bPZSLfiuTnRRM3iF6LBZjyUsHOiFen6dlginb40mK4b60tXMc9dQiRc0hY4v11mpFz02v0PmZrqhYAox6yy1QjL8MJ7diw2+PWXKQicX2eYTiCNRZIvdRqTNKgafgmBI89fEiZC5djWSbm2nw0EMp4fsQg4SfBRncgMrvpMtGh9Pqzmo6cefudHBrlA6kS9JDJx9M62sncBc+t5GqYg2LXW7gpmGpVGTSqVA+loU5r64fy5l59TR47Hh9tpZ/TznJ7+g7IZ7K3dLiLwJlK2g5OlF51ZN4sU6Uii/NXppMTOFHuEe1ucXfHKta5TrJHRRJQeS5hVHBG58sHgj2s5JA281eiMAuh2naAgVnpn+LGPiaaxaD4rCLzJCXJyXKdZQHV7uy15nqaXRS0ACWqZ541Dl9Jg3uxrNeJ1ex/n8NanYlhiPwEUh5/prS2ngtHf8yRqZTqBASw+2SweG0tX4wHdl4MG3vOo2DAnUKaUqIfYaio6zypFOUzXbxney7EFT+7ziSjpiiBcXvs6VMegadEK9Ki5elEfkSpE/hgtGpeGcdTO4M4xQWKfaERYpub1Q+pTCxEMCL3LFMuw8SZQOP0SPaRi4QcxYoxndjivS32DZg3y1aU5IFSNj7CAUwJZAYWJ2pHgOmBA0yseBySP7R42nwNY5E+9Ng9DAIMBrlWPEKs8ZMhON08itrJZiMa+IxvsW3kg6ny3FPajMdGd2fdtbO2OeYZRmhuSIDKXo3WgyTLr6TWReiE+JsKJ68iVbnEy15hFEmXND0nKg8YvlIiycY/S6HezDBUZ+vPl6f/1bP6JYJwxEeT8I79Jj+4SnSkIpqQYIQaMvujGwQmpy73g1tZgHGuvI0jWQ7KgNhAH0GHfMrCKZpyfSnCfv5FlDd6ya/frLpHjK0QEMhGDglkAIO3uBr92E7kQan8XHE0VXICZuCqJMvK4OtnEnGaf048vNENuUGDOOTE6vpsvFV6fTp0+nI8KE02LWBwDIv2cqVZZM9uKhHliWL7eUzQwbTpJ1YfcEkWbEKDKGC1BEuWDkVq7LidWEk29Zg6jOM/lUn6UWZePNhthrgh7JtkWKcr6OLr4J0PXXZOSiKBoQmZ4fXNRSFuhdFYdwUGGYE0YO4av879Ds+QCAZ7RdJc/R9UYKBEwOJeOZ1nyRHjgysra00vP0urM/juujMZQgeTOeYeoMoi2IQ6czhkgysst1gKnLIdg/2pCvHu9PxUyfS8ZWH0souMP3moJlCWZB26vyRV/wtgMiuQEdEWx7up+14UVaygqFsBYsMiPGCTtWOWLRYDs95doOprxzy2tap1e2lW2apce63K5j6beEhWj5JYWlCv5/dOzKpY5dFCNjG4KKrEmAekHjoenD7KA3uDB1VfnLWZ793PyvlnpMWICyQFEwILJvSoeYnMOX6DNYS70L1tq9GYR+ZMw9lm10atl5sQeCh19dQ6mrRJFtljf3D/Wnfzr509NSxdGr1KBYuJM25Z6rFI3d2KaNUVjnnyakedWPHq/rRC5VUhwrN1tXMTsaTpoUzRaXIF0LcSZ8v8WKd6FN8+e+lW2awqiIsUmCk2sQPEcxP7KHV0vRBTiwEUaWzwY79ijwLMNA88R7DqPRp9GfemqHreWkRnR4f/qSERqQcSPmJCPDuPZqGt92T0j0reEEQ10ODR2UXy2amChpkZb3ChEh5X2HOJAukIR3KOCO+aHBxOrB5MD208VBa33UML7vVDu9ui5tlkZiXBdOU66bY8WQjWPIEY4IHoXgGnRCvSouXrn5lL4HVU1bNp5qLF+tEqfjS7KVbZrCaEPEnXzhSbfkzZnLsMOuzg2Ws2E/rcwyaMhK5WTtqfRH996vs49TFdi5pjr0vSoRA+vtjmF9iYeEIX3fgosL+nP0cR9PLyFpoo5ZwQlAG+g+2a3jTmnq2cZTPjl0yOJS21y9CYD2QttdO4foqFzTbUrFibrYQUN40bz3Mo2MGUVe4oOmRQJErbxKrnOh5GdzbF476fIl3foKplkt+xRGNcQorf2tY+cN6dUidqR340rcgAFFotzGauzjV4+EnD9vgBE6yd2CFGXBqmiGaatMn8MsPBBSC6eNHMbdEdY5iRW7oiwp9RmfDs8phZ6MSIZwU3IjSUKRKcqLDg1B0hnk/wpujl2JFcP3MRjoyeCDt+MIFtduDVPzPQORbv+YXVUv+rEMnEGrZir6UwRAqSB3hgpVTsSrr55W85iHRUdCdwg4ay6LZY+u30I7wF+gH+HDI2D+cWeSWnZ8A1Nkh7MoDTYFtPBhAGFwAg7swIn0N10uUyY/5XmBn+jRcPq0MfxPfWRtwJEKasYKYFZbds1AqmPAuHaniHczMlzRLREkmmlK25RqWZi9LV6dTZ06mY6MH8SERPvZSp4LF/1wEB9Sdd/Jwu/ZMTnbUMzUwxBN0c4lNocr6sGohaYaiqnwRbJaV1Sl0vFa3l26Zpcbd0hQ1RzLg9RSW0vl4khrbzND2oRx0WezdbYcmUTYYYuVucCeCqfx8LOQ+erj52YNYrileMLn0Kd0UhXNiW0WxY4OVSkeazKbBXJXcLM0lEN5Cs3dmBuO0d7A37d3Zm46fOY7A6n7vIHtbbK+8onY8+JILFj0wxBOkTLhBEWZUiYo1+tF5wRdHol9ZiZfrVHuL+K1eh26VSu1quaU/HeK272g3nqTQ9dSSwUTHLAc3jkwP4er6Hsy47LpqooBQaFKtciM4C9J9IZQvULIgUqVU65Zu8oY4a8wLJmp1W0OedVxJ78eDTHu38KH7bdxYXCbBuPhzO9Kx40kuWNyDIZ4gZcINOiFesQ2IZILZR6SC8hy0z0q8eILIeXSdSU9co1tmqV2tZ0c/OG5NOSUfrezC9ZS/VSrDHthna1njfrEFkh6u7naNHk9zWOdgf+ECymqKJiijk3BCVMgDjqglZ1NYeJIBitdK6aZNYhGybdbwt0ySvWzm0dIjbHUjz2SuUPUmMXEEs49MRR75Z5Pk4xsfTLn0+MofnhBaxXMDiAwlFFLlFKtC7/G8n8Xl8AdwrcJRaVo6hwDpuFzAz4UJqL4gspKxibSRUZtMmKCpdzSo3ZUqmAoXiPAJmRwuCau/jImmm4gbHRhCBS1bJypvEqscs4hmNb8+pao+E1vUtNUzumWGnFpRoR0ptNu09BBPxOzs8HoKT1JA2MorzV6N59e38W0HLGiM7vcL/wU6eyhuO8HpiJYmQt4XJqCsOWoT5BbyVrJgI+40S++qEwHjNctiVxKv2DgjAE3NFFRBtBSqHIu/YC1ZYQWGUEHqCBesnIpVWcsLkoCWvBdEoum80Wkxl9lj9Eu7QjtSaHfa0sprhYsUmPrpZQ/xs773WoxKO3jHqjxtIaXQqcU6K3iOfs5/QClQ2sARbbVkE/kGkBss79UIolpIuQJFMrMBYQHpS0QdmZwuAWWvYIqmkhWe5Z2pCRnYxgs6qjEtpuoXGTV8pbJPmU6WTPOCqc3G6JbZW/L5BZlw0zHB5A/fTN8J11P1tgeO7s62BVNj0iEniHMMkI6/BXytjO9+Jx6Ue1wa7L4xpV2PxrHj68tnm9hc2uhDuJoRsAm4LOmOTUHbCtKVGmvicOZgYo5uLSczJ9fZ17R97HhyJ1hswBBPkDLhBkUUo4xEtnDBqNHlNU4WJOUj1omm4stNL90yg1UrKrQjhVYGMyB1+RSMbvqWYEKfGW9v4im47oWS1WWBTt6b5dnatc4aPytp8068oXhnGh//c6hiyXHtWgTY43OArT0SNVxiEGOLaCRqAqcNpFquEgKVRTdOtVK6bZPxwJcow7CXoDWcQm83mchcsJiBMcGDUDyDTohXpcVLV9/ZqnexK0ifh+prFvaNDqZQhVnFxBIF3hzH6zvbGJEwJOHaCvcT22PS0Lb6NNPrgsImQBa0KmorL73hQHrLPWfSs05spjVWYOOLto2P/XEOJgTVYM/jMXphBGOwTX2knM2lJhM+g2aDYJOGShTpVqo27OgYUTWdrGXBSS3qK59Z8OD2wTTcWE0bQ7wqwufEpqToV7igmThReZNY5dRMxBOMFSi8qr4Qdn6CqWbVlqPQjhTaTVq6espYKx/iRL6DVb9tjExMUd6py/TDw+Hu/KWFfOHXN+7G7zC942H4lC7S9x/ZSD98/5l0zaYXH5/XTeu3pzE2S5wOYlo42P1YjGKPwctK/toGhTTxIMl4S0OhI3eatp48V288UVnYF0w5U1xfuGrXwosk50tATjsOJfyyBE4wR9KxtDPc4kSk64GZeSMrX0EqChesnIpVWcsLkh708BV4ZeYbknJhQpGsFIV2pNBexpZui97KRY9w05cLEO1Ur2O/UEfvWJTj1nB7SJWkRyRWkz/mc9XoP128mrhdiS8TveWedR+1ZAk4XsejHZ9OY2yW8ERC2n09Lrswgq3hGxGrl1MpbNQSHXHlKVhLkTl1xDErV6va2VeOT1mQh2Sk23cNsnyJPT6Dj2cEL0ln8BDnsXTcHs2yp1jgV64Fo1vjBZ2qHbFqIR8Zhr0EVdWwax51XcOZTX7lS1/pKLRue+mWWWrccVUJ12/NWroaZKyVR5qTg5W1vWljnd+kcH2dPcUgbDp1FHXx6L0rKdTCvopFB8H7UB3aiLvwczK/dPUe4HvS9x/dSK+/fz1dyc9mbjYP+43xEb3Tn0hjbJaGBxFYGME4PVxFgA3xBi/9557veEOTNONJ6GwD0hHPaGd2ZTWYunxZLgK7Ab1rsIbAOpROYfXpeMIT7fjjKBb9Czcooslq97696Xte/0Pp//i3v1Vsu6qZ6vKyE/GGK6P0xJue0nieTZ46WT92KD+y6KVbZiltPUbT7MVfBLbZ9NF8o2BlFa97bJ5GN2o1kMus5/TOMThKHZbwE1YcegoLj//pIpynX/S19AsvuC2lv7gyjf8MT6PfmaeIJUMhO/gE75lbMYLdmjkjBNQqAmzleoP5uUHlQyi8Yt2uDD5UqlZ2a3TftREftOTpCkZaIWptVdRZUDaC1CW+G1Ne/h0bn0zr+JWtEQJLsgLdqNpmbIRAeOcf/VZ6wtOfli572JXp3/7iP+/US/UudgWp9SfrOd/9/LQXgblM+sqX8wgVXJp5L90yQylbUaEdKbQXrqWXKXO0HeErPeMd3KPawgypTUt09mJ6NjbFOCA9flZ0IINaB11b2Ulv/K7PJrzNl9JL70wDbOkTF+PnPPDW7i2XYgGjGbWi9TY+1rL9ERySj2TuCHP/FSxyjB5tMI3xO62QqPHasvSdkKpudik6B1F2lnk1qLLmcvvi11zKYy7rAT58i1IfR2Bt4tOiowFWpejejaptxhhM/+S3ft2CiWove/Pr0iWXX5r++Zvenra3cMffDYtdQYpLmuGZt1H6kbe90fBldrd9AtP0xqCXbpnBphUV2pFCu01LB1eGtvKWjvocmYZ4f2qEpyi2+eHMmHo6dRQvhXc7khUAAEAASURBVJ8HX3mE6q1NZr72ebenwweaM8M3H0kDbOkYHjqdN2rFGm3jt5WwjdOHMnd4ZTq+eX9aGezGx1jWcFOvPsSqYIpFE67bEaKzM1D2n7m2L7vMi0VZFC+WKpAb8jRyYIAPOeIgn8TUl2HBqWDRD9hP/uovpZtf/MJOls992femK699ePqnr31ruveuu6p2dVB5sCT77e98x9LTPQbsJz/+d528W8Ky5G6iQ+XC5H21KrQjhXaVlq6WGWvl82ha8XpqtIJFip3wTYrWcaQn6hKFS+JL+EIPYHW6G8+Y5Bw6uJ5edfMXp+d+0Eet//lDafDOj6f0jHtx3UTLBdPO3WkdDXRy+8F0ZPPu9ODG1xBgD6TTmyfwoCQeL+lxk/t1c04HM+pGnHXr0j1Oe1nZjnvmGX0Qx4zTeCPM8ffjFZh9uN7kfZO8IlW1X/32n0ovedOP9Obw+JuenP7XD/xxevlPvi6t7cYKajXr6D8cixD/6vf+fXrlm17b4S9CfPCvP5COHo2/hjE1m8Zdf2EK15FCu3VLN04nqtjqT9D5gGc36Nira7u7LtnZ+7auVpfq05/F61pXqscGU77p6bXP/Xw6sCffB5iqxZ7FD7k8Dp/4egw+avkgnuz+y6vS+L9gSngfFzYWT3wwkgG2jgt/PiPJqdQKHkXhCLYy3I1rFixdI6tuma3Lp8MPR56elUEnOF3YvW+5cuw/dHE6fC2uFbnwAHtWkYkuN86s41cM648Ekcdjjs85poPDA+nM+Ew6jV/yG+FbZy/6kVem17/j52g6Ne2/6GB62794R/rx/+bn0/v/379Mt936d+nIA2hHpEsuvyzd9Jxnpqc+6+k23ZvqZIbgP//Rf+5IvVkKz+iWWVqybeti1otMuGm0WvlcOgaTfOEEtrqKd6g2/XUPdurzkc6Tn8FNL/6xfCouhcrVvObSk+kP/8lfoWOoOxWFjFDNvtXnUIHlcMxv+H3icErveVhKH8VyOj7h1Jd+9IH3GVuNyzYseMGgAiYf8efUkMHFIONam72mDqN/d/cH+9yfd95t7/to+pXv+3ErmbUM8rYqe1lzeI/Tk7/7Wekdv/tvzjoQzkfBubr39OtvSidP4QQFh1yyIexsJIyHtrRDVHWsfibLGlkVe0NityFPdNaihSm6Lqn60GurK5om2T4//CpfzssZm9sd3MrY2tpIq7+G1T86b1N/d2u15tNL+sGyeW9x0htfeHt/MFHdg8YCSjhGFNH86UWr5eNxJn8ctiMYtf4GgfWeh6f0wORooRLEoohnNXZ3fF9mi3fO8RkqyvlF0lWsvK2c0/OHlsPCO5XLugB6IGl1B0L+PfbpT0m/8Bv/wzc0mFihP/yd/x2/t4Ulc3QKlVsVNbplBq1WVGhHCu0OW1r5CM6TS49wWp+MOsPRKq4udtIj7hqmL16t0I8aU/AlA2SKlzzN7BHmRYlGcOPDjqUXPe2rDRdkT/DkIEJzQWaBRB22noKKcB8WNZ5/R0rP+0JKn7o0jf/6mjT4ZB611NAKJtGxC4hXIbEBFgQQYPZSWr3xB8EFT8yd5c3ho5KqdCn99P/0y5hmLre0fb4LfQzXTf/mnf/a3NaS5VyMbpmhAK2o0I4U2m1aOrgytJXPo1v7afQKVv4OHxmmE2jq+y5hxzuHdJ4Crd5IsR6CLgL48y/5VLdkLOsWmkEbp3PcnB4D2hRPo5TkBmFrU0Pow8/4sVjpe+PH0viX35PSi25PG1j42LKf7VDHzB1VBWgDDV4sCZKIeJZe2L3yy5D7yiH2ztf8TDqJb7x/I9M//dlfSgyqxVOtTbRRzVTFQrtSS0db4q18Lq0D3jrqo7H0t41AuOqeYdp3uokIkstsff7J443jJbYhAyieab/1xgfSU2/IF8XWGgySEDwKIoPgl0AqQeT6DELyLJjQsIA2lLNFuV10Jo2/6/NpvB8PQF6JhYhDp9PWLjyiHw8B9ZAcOGRpa4p45V5gDJkqX5WGNKtM+JXPfTH9wgtfmx66py5eXOASddz/zr/77fQnf/T/GE/llILRLbPURloNdP3WrKUbqwmvrf4EvUwwITPa89Kc8GFfwxMVjC4FUVsY0iaD9hIB0ufGeMqngRN3ZX/2xXgigomBpBGJUAEzMSpB5kETR6IcTKgsg44Nhf/S44hrczTt2krbl5xOG5eeSOv7zqRtfrNNsgLVfcEIiXpfv9SfWywZA+tLt92e3nrzy9Lttzaj/QUu6J/9xz9N//Idv2q5tCU1umVaK+dCtaKWXqbore1c+iyCieVhQHEbIpiuxu87DehnWsCEunbq0gRFCcpZ/I6DSlhA2SiFgrzwqV9NN16NaUJPACm4LEBs5IGTDkRFwpTP9BhobMmpW+2GVLE0ArZvM20cwuM9F51KW2sctZiqrpHGEfb1hXW1LJe6lN3KlCmWmSPUzz//h9If/o+/YU9EXOhScmT6+Te81Z++6OZmpYoFNXFlVCzbFdqRQrvblu7mNptqbe2EO9ukI432CqgdBNHa+iBdeh9urcwKhD5Zx3sg+nTn8GzKRxdcHv+JF9zeHZUUWIC910nsNTGoiCOoyiofa967galRy1ViwNCEd8bHaxi1LsKodeh4Wt+LKaJfa0Fsbiukxdc7sfI5X4V6LYX4aM6tzfTb/92vpZ9/0Q+nz936yQtSyIceeCj9zI/8VHrnL/7KEsFUi1LLnXmFdqTQbtLS1VNjv4D+uQQT3deAQtdDn9l7fJAOHGWv70lzgmEiEHtcGGuGnzLle+Uzv5yuuQSrZT6li9Cuk0rwoDl1XWUBRDrzJq6T2PKdDYQCyfiquLpkFsd6UC2NMCbs3cB11ol0Zv+ptMkvwiKZDHu6/HqlPDqxAXJiszDl8Mr1yLxuoW778MfTT3/ny9O/fPMvpi9+Gieu85C4JP6bv/bv0wuf/J3pz//vP+31aKXoFsX1MrMVFdqRQneserMy5jz9Vj7d02KSHFC4F4iuxPtohPvvH6W1M0Dw39mmuWz15tEz/NiTEgd2b6Y3PsdHJ/YGLSSwp4pmS1ivcZ7R2PGf+kwODHbwVs4SZ/0aSjCXTZa6u6gBHVxrbe3atq/jDM7g+YQzeAYQf/d+GQ/tzk2e7xS9JvtJLSjcf/fd6cjWMXuKY2hPcvCZc959yL67PkJoQcCa/Pnv/4f0Z9ged9OT0s3f/13pqc95Rnrk425c+J7V/ffclz7x4VvTrbd8JP3R7/6BPVYU84z4ZAXE6dcqXEcK7WYtLW+CrXwu3R5wOZoCW39U41RPoxRHKOI8FBfdO0wPPByPgvXeGJqSQcvOh7TlzqTxXHxKr37WF9PFu3CviKMT+oAFiAUPbHUdVCB4CjSolwUHZsMac2Mq0BGTeQmLLKiKl1lu7sEEWRQbjmcGdzBqbe/GLzhsrKQ33vTUNNqcfLiWrSvb/GoHM3CefyGp0DwSllcup/Rpb0skqHcOETYV57Z4VMr0+QgjAguPG/HV7SEej6GjbAcs2DF3yj6NEeuT2Ki1unstXXv9o9IV11yd9l18MPFxJG4P3HNvOr1+Jh09ciQ9eN9D6Yuf/YIthdMvk3WejNpefLGM5q7TMapWxWRx9rD1NZc+D8HE0vJ4KKA0QjGw+JvQ+/FZ5uNX47Fl1r/TBrQ8hzTD18rhA2fS6575eZu22dSOLWHBBGRGUE0EEstHW7WkGqzQXoqOjquDJzW5Icd4QdbVcQHd4lpri9db2+jI63h/6wzuovO5PyTZCBZeYAS0q+8CyQXNse/IY0m3BvxWHIkNo/ncIV+O4/OIgzHK1RwEC1D3sX56PX3uE7elz9hrFjkX+iRGPR4GjMk2s7bfq2U2bivQS7fMYNWKCu1IoT2Dlla+fbDVnaDVN/qMe3itfVRhMHECbm0EXMFFONgcpF34quyZyyidkprjMkVrMTZ8rfzEcz6Xdg0QxRydWPIpI5HxUa5yEUld1TRCNVbheYkL7WUjbacODxxnZ+A86PSZGVcCunHbHT53uGcdvxyfR63ROp77a75rLt1Odk5IZtCJyhNWLcURpESBwPekrClQJB5OBhhHLv5hKCtOrKZw0PWRxbQjnzr8XPEITbmdNuCPp4s6l4m2tDS6ZWYuxQEzstJu05q2dLaq+3nyqom81T8icwY+zzcDRyMT28s28BRYw1NoK9xj3z5IyRLJu+0SFqa68pInfznfnGXJSzCB0NF03tzrJLpjY6kFLFjIowBpAuYSmwnyGmOcHmLJ3DqY60+YuKP4u00TOs7gCuEWFi+24HewgcDa2IVO6a0ko55ieRYR1DIZN++Ci8IVT1B15r0RlMTawGTYMUAGHL2sTAwwSmSpqWWllauHJKac69DmKFgDizpmIbNs1Nm3okITQfMU2q1auuMMRCufR7f2s+jWV58uA0fXTgoidl3x2A1HeDxpZw09a88iHvtyCTzvQoHTQVdGfFuPvZqlKAEFXDyIzmp6p7JPQJQIQ/HgcwfS4DMH086pOzElGuDicce6Fksnk4hnHholCIUW6Ihos2eQ7l7Hz4ZuILCwiMHg2sbDukjSE+znRamZFbtJ/aDbj2ZbVIJTOH5zbsybkKi5XXdhBGOgxcTQCq5chM9VQZcnn028KsJv2LV20Ydq2voptCOFLrl0vbTUPP0JeTx4rbOzpDsjFLqWgop5x8BK+OX3dAUmh93zj51EZmXNNp6ZmgDD1wRhYLm3EGw1AOXcmDq4M4vMvXd0spmNyw/hV+s+hUBCMKV11GwHHchHMpyszbm5wq7XhQndn9wKzpKZDpqGI9YKtp3TedTawisgvL6RD0LPO7NmN6eyzDDsJXC/AmIbdCIDBIYtcuilSpxwcCPORi/ekAPWVxLarkA+xsuY+UYCe0utT87XM8rEwvt5Vq18Lq2+tGAJWn/TzHpHKDRZGaFgyMCyt7wfwKcKrkBLNUHQ8T1L1lFsCLfj1wQ9Ryj0Te9UswjVOIXn3grtmZHGl5IGX9yDX+Dejx+/xqsbCCKcUiuECi8qR1i1M7ewkRt6Ed52KPFNJxBCBSm3VBjwxLx2nUnra3hJbWs1rWzi5UV8BKRk1po4TSA3glmUqS4vSqqdYa4ofcFswT1GMH501DDsGDQIFH50k4FW+IZRjB8uA76NL6xu4wRl00DTq54rlo0K7Uih3ecs0OrOpdVfZjkNstZfEE2gU0coNFMNNnhks/Gs8yDO3Jfmtp1wJoZ3Z5HLQIxQUGeFOfNjQDGpRoQRNxkYhec5F5oKSKSPYhrymX1p8Fk8W4+VNwukNphAm+mQX2TIdq2rzAZXgqxGtrHisZKKoHSqbZTAnsVfwWNO2NI2Fg02d6XVLQQ/BDmAuy0ra8HsP1OFV5Ba5Mqqp4XKo5duKjMDZ+9YJTFJhBE95KBi4DDIvA0hY8Ctochb+HTMDnoTp4JMbV6FdqTQnl9LO/usQFuXeU6WzTtO6xhA2jRC8T6VBZMfygFv+J5Amx2g5ZzkNnO0iniId/XKlO+8XCdt4SB/GWd6BtJd+EZCCSCUjL2XW+H5SMUuwuke6q3G7MIgyGpWAemoNi1NfpdHioGSk6CTKAM67JDPDuLnKbdX0urGnrSygzp4avXJFk+wMILMzY1jetgV/R69tgNGXfoiTR0LTcxjSKPVLcgYYLZUD3qIUZgLF1s2l86BJXtCFaLPv8mn7ObpR3lblykuCzvaFuYcxAIIOgwPBZPgtoJJPhgg3I6i7/EyevcCQUVb2iyQVk/hg0OdUUk1ilBDQOG590Ijp2NYbfrc7jT4PKZ0pxEdDJo2cAoP9qwxgmvnSky5vozyYj3YOghcRbeklD3r05WBdob4fTrFqMe+Vx/PC45HeMxpDzaMWiNcZ3HUUqsqrwxFBedd1LP32gX1mDfxc0n2YRj45lIHy8nZnl2DIcDw4zBpcxuBhdFqDNqSl6MpTmyq3uLM02/lvU7OM1PBYxC+68gEwruqQeHMn+2D+1PjKxBQ9VkASman6KNHc/XkvRih1AqEHdyJwnNvonHsBncizG9HIH2V1x+Q69qoL5gokxxwTJ1rj6ftD+H6iabwK9cZdoNJ5S86QiRoim/soqNwDcp9+ihBMaEq7mttr+HZwRV8LRYrgwwuXmtlnbDvGNU8pGHQdaQqWLXZBl1ul6rtIxuTt0oIIJu5g7/Diwa0LZfaR7gm2+KCBT4bkDRNlCPACTdBRrSVz6WbujTuJsjW34TCFIYCSoFEPxx3ypH0bmvmEQdj8CC6/7xFCjNsdo0fSVdPPuABpdoU6AgBA4VJMsw/bTT6AoLoFEYjCyTohGDp4DG4HLdg2oHtlfjABoZluY7ZRF7kGx6EQgUpt1QYi/mnTTHJHrIbZ25j1NrGr3GwbsMtfMdiB5+zUttEfcc7vpwQTzCYnadgqp4LBgRPtHndcBa0ZXYcO3xe2oayWIgpePHVVzfwJuRfp2BicRRQPBTEc2ChROy23Jim4TzfYDl9fOmCU7/sre7l3zk25bPWUIuoIQrtFhyNvoYz2+fWwmgEWV8wKYBigAVeCSbyLlrHdC+XRlmSshAIDKGEKmLW4757QE1XBs2hFlsw2nbDztyWvDr6eKpkaxWj1hhL71ghXEVg5TW2Wo6qD69OVF72HffnZ2SqOVTM66HMILC+xaAaYOGCHxdFYJ1ldzKvE3mpwspzDmzt56hPiBVQGqHKIoQ0rcJO9OFYpBgcwyXHQW8c2S0D6Rdp9fg9GqG8WqqdzrwnkdnnEURfwMX5SU7ZYDmxga+AiTDiHlw5mLL+GK+987UM3Owv3T5nj73KgUIKFbSSB75owq5OpsRrYdSfFUxd/9EnrDBqncGoNcCqygBTwtUxP8LorYvSzMpTfs9PMMlb2waB9sKoTHx6Y4Rrq50Bbwzj+HLE6knSl6ilxSds6xJlffgsX336fTwFFLtlZxGCh0GHgoYtLpoQs660C31xt5dIMtotkXyEghPVzANp8FWsCnE0uguQJZ4IIvGmBBMDaMoIlTjVY7A9Ag9YwbeNUKUI9YzOepRieaV08hO/TycbZQ3pCbobA5VXMcmVT5//og1E+A5GrTTCNzHwkcvBGA/nYnWQT9tRQTrRl/JZFpqv6LA4yMxWVGgiPGRFPyPGRmWH/E1bBNY2fo8p/mJln3500cqjbB5+LrbRN0dXdlGOUCURFz0Np7I9pZKtBng8aXwZjmNdEK0+ssrc/eoJrPKVVsb10OALuHd0O85UHI2UpgYTSipZz2jUjlqdqR6D6vKT5Qjnxu0GU8nekdjJJ2QtA7QOmCBVhAuSU/HsJOYjWYaisqNAZUPsB7weHOB3OdA5Wf/BGAsZWGdj6tO3M7oOfI9On4056+yyVqtbaEcK7bYtzUcJRlv4RjvPcCP8iEPfM4Ih39Z+2dEpuDon1EYoeLAjGYOHXkPbGi7a9LwGskFkDnjT93Jcb4ZAs8LJzoj+3WjjNB5rO40nV76KayNO677C0ahRtpEG3hQ4HeijkwUTdDSSCYYRqhNMvOlEm4txVoSuDoygSkBavOmdvOoUZWvayRYovpSB6RViAunqZ8r22ElGo4gX2phYIRziYzMYtbg2y8Di1FApd8Bazl4/UgY0eas0kXswmIFOuAm6/IWLnS18SBQ/3DDGF3oXWRFcNphm5R+KshC61CIEPVqTewmI6xAQ2pMUQA5DbvympNKlnyatHr/bjsbK4C+nfJCxEzzw1KE9mKZN7RRksInXTZruja/C6MTHfzyA7ewSyh7QclHP8osvWOpUGOZpgl3ERVJ9BVbJq6ufKfEEaRfx7AccZ0rGZsPzV/npBYQVvsyN1fjuzQ/pZh/FhcjsslVSRtBqRYV2pNDF43xktLOZBti2eH2FD0qq57W+vpHBxFosvQjB1uIxicEhnHADuxPYZr3uIX0WwNPqSX4yDg8ti9GBneCBdYcOwWSBAzqMRnGqN9b1UoG0xVn6EUdzMFlvQwXDURIqqHKJFiTf8MIoiJmIEiz6Zhe5pt4bTArPol2QTpGzA5RGYkEXGMg8/L4RHmTdHvBai2/2sqPWUYuKra3RLTNotaJCO1JoK8Wkf2cXEPXZb1Z28JoIXprcxoogVwVj+kYHk5VFnZtQOAUtLjrqTcEHtkiB46lFCsuoZyefEPEeFA8LeniTSvAwUGBhnd7hlMCJQaTgmgwmn+ohCMdX4GMwPvmdOZ2b0ilY4njgRYknGGsmXu32VRrLIG7Vdw4YEzwpQ2KyoEPRTH0sW+OXpWzbQodlREtfbuVTdAt79ankgqny1pHT0/S1Ijjc4nHjvGj51Ppe3sMMiymBYUEVOn1chJgIOLmXr4fQX/EoXfEhfoTBhkvmTN2AUgApiOTN+BxdGGQ9sOHVaZ6CqIEH8/WTBZUXSg1eoCOiqSZcsDD6ZL28Ykl3lmIwSZqhKKgBFSXo5iY0XiMQKUj9/jP6NhYzzqAp+JtY+FSaPT5UvU9i2WP0a76l6IKpcuk1cJ4+5fjmHN4l4/03XGNtY0XsH0JiB1dqcdEWBF5Dw91gGm5iPIT8EPs7COlNg1BZOX6/qcLCU28QwQP5CqQmcDrB5bLOAgTtypaDanw1rp/4fT1eP3GUCkkHNXZyiYusZaAakklEKJ4gORWPmhmXLMOwBypZn5XJXEF6glG/P5iqBks3wKiFx0/QNOiwmBpOZtznufqQfqvV0sHC0FY+jx7gMabhzkkEFh4k1oVw6zTQrb8gOj+oOjq9RVy0GiZ2txYXbfZeYj7QgOV0S8YP/ht69SS+2Y98/BrKpTYSAWdwCFcwCU4LKsjHZteMRu3107X43V1bCbT8rayxwWMwiS9oytwVRjdIxBYs+tEkMJVXVz9T4gnSLOLFjTMlE4z684OpeHOEZxuuDjJPLmDwMIVzHwUhxTwDeyG0tZ1Le6PlleUt3NDGS5F4PpBb36NMrb+FCrWMkjo2bXpxlKCX3+jLXkdZNvgabcLHM9NFs2uyehzXUEg4UlBW8LTQOj7kBfqI0xNUFkzNaKRVvQoRdJfzhi5ytrxqJ2Vx1cFZMBVfsPAKoyAUTdc3WVfX9J0VJQrPwitI9U/bnKTdJ6u8ZYPJsgz5DrBCyFVCvmCYgwsnrJCKqiOFdp2WDqZz0da2ty5QGuAnhQb46tMO713F30mem8O5KXTKh25aEnHRghS2fMmm8d1mgA+9pF043nvYcSfTyskHcWLhcWJAtUEk2oKoDSDkTHkjm7hmsoCbMlIdxCNHZo/cCZE6DdNDT+pkC9kJUk9JvNrtJUF+ElYWypCZRQREuGBVd+2gQ5n0CuzLqDop+mKZnYyDP8rxsgtCKv94+A4Pm20+arlNMDWXLW3MsGvlLR1U0WazpNCEfMjf6sJUdYf3sJobw9HX+cBLaWYGg2tFHWaeu10uRpRx2JUs8qmJzzsPVnAbCB97adMKnpBQ8+C0B8vOhoNkdBtMTmvqZ0ER7zO1ART0fdo3vgqjk10/IU/aI+BVPBVINAstXLAw+mS9vGJJd5aUDwlJW0jBBC+bm5XJpOB8kYJFfUGk9dn6ifQQd7VGmBLmAMuLA1HOLFu6LUYrn0e39lNpNPAAP9c5wOIFP0JzIVJbVssjBgBxtUDLNxnEkU/1+HRElEmfmfLFRGUuHcDVE3m6Rzf9I5SCpmdqFxciJkamcr0Ug0s4CvMI/O6URicb6VgElFGFzGTmOV5EAcEh6+iQkFiQnIq7swAky1BUdhSoYEG0jkyZymLpC5qsr1JZ3fZRN7AXQmU7xIrgBp6/ewg/4syfx1xBB17ZAcQKHO6bT02taC49py59GXGpfcDbAXj3ahsjFs7vfWpL89qymtvo2nBoEU7wPbsoM9y9Rj5VZS8+X/fAyt/4UJj6QbZ6PC9I0GTl7u1d6UquLvWNSgqsFiLQJlfzFDgt9JGKuV121EYly8uvo+KxUmMJ0sRSYfQHSRFLXx2/0O7GFaWfYdgDlYwWES+0MyUTzDnk/bzpUWtjdGAG1By2dC7LAB+OOpSOj0Y4R+GlQnTcLfuAJrTxzwAb4jGiHGS4fYxAy3YGyq71PUHHA1SspiOtPQ/4kDeH+bYwFy7OIU36hrO207PyCgDmNQ2XTEd5ml7LR6gM8CSFve5BH0irR/M9KOLDl5345vSujUM4CN7xI4x4CKpuMCmA3J567UjFnJDGBzgNQAk5E/Apnwkoc0SQpOGF0Q0msQWLvuzICEn9Iuor1y4vG03ywHGmZIK0EH6hg4n5bHPCt3oFPii1N23wa7k9ic27NRyl0yur6fjqajqyay0dW13BO6EraR2Bt4P35FVmmU/QajQpzIGtvdStTzLA8R7W4CxvDMtXL2w7vZRaPmmmaXzJTMn1Ii77U0C4CGvXXLiaxZSPdec2fAid/62nr0//7PS1+PA9VmlC4HRwD646zesJnBJIkOkhWBXoKvyQG19zsEBCgQS9IFSLB8TwwiiIeRMlGG27YWfqZUrZ1c9U4QERLpits3fxBKss2M3pgK2t0YEZUHPfR2/hF+831x6GttydTuPJ9v6ULTv2ILYxSmyOcOW1spJOIriOW4CNLMD4UEAMzXknhjbfTl6tsNCcrONGNgKLP7SwTJrqX52cznQdRF6HH3KKsmmLEB2d6AulcL+DY3ibgA+NgF49cm/JgGux1iN+f/Oy9MpTN6Tbd/BBEgVV3whFnoKlbzRSUPHD/SGNr/P7T3F0wjSzr6G6vEyJJxhcFx+zgqlf37lwKr+CVd+9Bh3KpCdY9fuxVs/owAyoOeijN4cH8LbwVZBzWQIfC+MLmlNSxx5Eh4ZNptG9h1iYR5CdRpCdWh2lkyv4uD7oTfB5zuOVwLzU+p6nT5ecjvLh20UCa65/K6NrEVeZp+EsoILPcO48yZZkxx7+JRPE40kDXK9yhLKzNk6odu3KonD7HN44fcX6o9LvbWMK2BNU06d6mvYFyALFdBgjlEaleL3mOt4c9cCLAblQQZoIF6wcd0idKmz0uwJRgsFDtmsEIgWpv+wZveYxiUW/lPIj1RujyzCTPmzKlJ8aTh+dOvYgOjRsZ9GU8cS7gWkhA+s0AusMvqKzgfOjjWLqTNA510RXvNbjkxedgxUct2UNooxaeaBFGMvW4qJNz70a7h6n4RS3wSdfcDN8sFvC7jAC23Wc/f7Z9hXpLdtXpYf4a1UeWP3BpACCGxutCMHr5mElHu/V/Sfo2CiHUhEiSV2wMIAUnmnmnXiC9FDxoOioZBmGPVDJ+qxM5grSE4z684KptTE6MAMa3Rq+gycltkZX48jtM5q6m3wdJDddo9+0A5Rb33PpeBYy77wDxukiRjLkuW7b2N5y4CvnNkaqgzWlWZTkPCWPWJy+1BJWbJYnaE0LhsinCyune41ljnoTeNBvbeByz6nuLKE5LDTO27vSvvTSdHX6UNrtK3pQnTXF01TP82f5S7oSTylzemIjE0qlEQpwQr0wup1DbMHiG0gvz5ldWabEE6SviBffzpRMMOqf72CKeWwP9uCbm5jiNatjp0eYKk2kaAkhyIYzn54IpolMjEG/PIR8uW8Lc5xNrDJy2+Jqo/3h2MXO1+9mgsveMMCItcg0sBjHfIiLXhanQ9kKFz3D18V4LGmE1VYlRIk1D+i2+VO6G7ep3jC8PP3a8CC+mx1HI+ENnNKK44cfKSNdZzXRRygWxnIvRSiIlVOUYNE3u8g19TJ7iBKFZ+EVpK/m0u6TVd6FDKat4cUY7K9Aheo5j0XewN9WnIJYlXNlQpVyQyyxn1eXRVyx1ThqbfPLUPYDBnz/C5/ZRpDUFp3viR/qzGMfrBapVOzwdK9AEC46tlu0mYazV8p2whcZePH8NL58tZKn4qTr0SLVkzgI/+Zof3rN2iXpq/gASZnaMRjiiDUlmMzlYYxQNs1j/GpDSd2m22aZEk8wFk28voPUdwCkJzu2k3DB6t+1gw5l0iuwL6PqpOiLZXYyDv46cuPzRigCCQEVk5miQ5we8QpnMgXXVtgODfVZ9PkIpokS8fDijyMW31fewmNJfO+LkC9Zkj9ZquyFZVUf53c6JgofM5MiedNwk3kLRB3ZEDJFGfMlzRT5oh3uxfL56tqVpYhllc84zLNnY9/5OO5pfP/e/emPV/BKdAwk4rOCiS73IVfqaNnI8BxYzM5SQXIRyAusgldexbID6AeWUEHp0JF4gkUGifEagUjBqn92WOtH9A4+uD3m9RKmejFJfgZds/N1H1PS6cItoCx9+ZhHS+9CwJg3cRutMGrtYOl8Czd8uW0D37Ega+oCfevL3rH100e95XQdk5mRaxnfS9HyZRP5NJs1krlbBdke/MjyyhpOgOh8PDGhV3eTVRqsDFlBcbCyhLH47XvX0j/GdspGKC5AqFRdP4Xi143w6xp1ZIojlGfv9WWuBS0OcllIVlm/nkykl2HYA5VMuhW6T1eQnmDVg48YuVHgeGtjdMts7HYG+IGF4VUoHxaCQqpmfaNT0w5QrvrZyVx6Tl1CUS4QyjpgvEJAbVuA4cM2DDAsqY+x+qe2tj6PXextJjOBFy3iZJkyWqCPbzLX6eDeYn028un6+Lkx/DgAPnO6ejkllqxH04W2irljV4zgP+4eph84NEqfxNO389L4YXxdg0EEXRuZHFpAEpeHbucQW1BaNJjkgevMrixT4gnSV8SLb2dKJhj1dYCLTYNEm2IXmAE1S97q3BkcwvclLsWBn96ep/FBTQ7wNTXtAMeTvqs2sQm5Gq2rdt6oNr9ZjqVrVeQ1F0cxTA93OILhg5wMMv7+FdufP4SQiw4rtQnhMjgLI33hohf0tXcDxwC6o12X0YMlf4aS1dHmkjngyxicXnXZOP32fjXFFIPDGKEsmDQyNdDMuj5ECVJFuGDMTf0iytTdCq8g1Vf1AW2XS02wk7eUqmEHizbFLjADanb4Eh4O6uX4sQT8GB1SKxfN78Sd6tzElcTMFtq1FvNODAs5naHU5jdDdQERvNnqHwKKgYU3hfnhGAbdE+/Bb2LxVziVOsEwjQ/lvuDhERCf/mbhkNmVDLrziFM+T+zdwpeGXLD4VwdTesOl43Q/PPWl8b7TyAJCG6WYHTeURpvnr1K0kD4rT1jNSX08SvqCSXLB4CH4r1xh0p/XAaXXsQvMgJrKNr7TNxxcgbNt/pJQK4/0SdzEjTQddGgQHbqVW451N68uVfPssLYs87wso1/KzgOPIPv0E7bTHrxNy08IdgPAvTIo5gSGlW/aIkS0jzhafI+PUIPVvVg6zyfFhRYl7Gix/KhE3/b+1XH6vst20l/jrcZOugzBxIIqeARjcMFAVoLRR+VVTHIFk2hCaQmSIVyw6nvoBZ1eH9VgIczyCZkF1Ox3cI9vFVM8/jgaUyuPNJ8kP70SOTpdmKkZR+k8f251wUBblnkZLasf/bEvbqNtjiKgMDPMyYLHvcYAmIbTql2EcFcTgWi+XR/4bgYUDyHwFTysjOCYXJSQL0EePv2J1wf5gZgfPzROv4pfMeBr+Ezjq7hcDsJGJY5Mcct8Naig2Zk11B0Sq3hmxmCSLENR0AMqSrC4lM9GIFKQ+uWsWI07WNTtCCYINswl+FzvRUXS2rb0cVw7VV7TDhBUWXY5l44NV0pxfpA273lel9YPZaftNl9J4RrOfWhXNi03poi3dJQti5uvWuo9/Cgm/tmtR2t5YQLoZFIANYdvUrGH87v7xulV+L2dO3hWvQQjVBmN/r/yvixGs+M6r3pfOAspLrPQtA0rMIQIkJ3QykMQK3ywkQRiZMAJ/JCHIEaCIID9GgQIEOQ9j0Zek5cgyFueswgxRVIkJcoUKXG4iKS4DocccvZhd09Pd//5vlPnqzq3/nv/pbtHUpia6Vunzl5169xTt/773x+Wx7bN2aNukbuqOWUq3OVlS7RchyNA0calnOYM4lMd+ecNJtMRFAnEb13g30O4X+LaZLaCfS88GS7eZhygWLorh6Bcj9HDhOxy/uJbrW/TPGjPw4F/v8vew88HsTWVhpZuNCAewdaGJ7145xeNdYAZOOv40WMtuhbXsKmEUk4XT8+8nTQNPYfXofUf477qRdy15c8O4Iks0yvA9g1O4lBkV3VU2YtzpGira+vpgYdxhRACem3uRD6DaTtbtHtc2nYefsxY5TMommrRXYU1I014G3k0TCfV4lcPlxJuNm0XT49bcXfPHrYBR67ZVqGuG8t30pWLHwEyzSKNNUloOMbbxdGq5jih1v6x6m585494lwDDux5KaZduIrHugzlKvfjAT+VF3vnR3uASE7VNYaCXN/iRhwXU8QUSbav87ZP4MTV++c2Wee5RCSRwmSeaXN0JQcdY+jzT2IqHfH/9b3wz/cV/+58Ev3Tlvod+y/oU+0tE257U8TL5JjEdgTaPLzQzD3/rO9slO8lnm16u1aeaSCVgiIi0owQfVJX7J5qF3uU13EOhdG53DXNMh2/z7bAMGgso2iTsPTK8w409DfakYIoi4o+4Lxvs5yx3C422z9Pa93I8WtvTbJGfZ/6whdmpU0yZ4+KUGoIprGCKPIYPmiOtZxm5wa9yOQ/JS5seUEHFsYK/ewIBxfsnhpIsl0AC2mDS6wSpQ1UhYyBPQAnMtVri/HLVnd6h0WlzXJrujrXjwDW8R222tqbpm5u/8b2z1IvG4uQnPraPAkuXbAVdm/zSMacvOwX8wspJ/HggfntZvJ26t+d9OaMj1Wk8vIYlHzcRLXBIgtUSUBWWKdX0sMIdldYQLdfxOM77pcKgq+q7+jW13UxIyf0y6tbXaT7MtNSjkp7sUXQzAFQKDE8KDCJhtXth5xcP9QFew4fJnM687bVhRr20fgYBNbWnkyc49bflD+7De+P4/J49K0OL/kdPWrgR7nNH86JLy60urlH2ZWmik20/p7Y1aPdoDFr7x2mmDSbqHrtvag1iak0ODNLhNflYIr/aRoi0wC8el1+7CwD6bByIA7C89shAhjLF8weSieHw7VPYAmk2IyyQSkCRE14wuFDMKasFGdoOmheRIs8KrgBV7v8nqO1+34Q8zvGgvXzmZtPa+jdJqs93BtOgDjoSnRmEg4YoMwTTonRFHphbwV7bEiZmWfK5C0sbzFBjRdN1jDAz4m9ucIEJL+wv3yd1A8o9BF3d7LOqYIqGM1+VowLpiHxfGtj7p3PLfk3qb9+EPM6xmGS7z868/K0Oyo9tREQmDYxPKSONwe5FxJNRsoLVZiZTiTIOb3q+sBNBHNlRL9qST4LABjUFexjg4fWQoSwLwZoCjJZpyPAebD2WYzDJr7ammHCH8fP/BZm2f9Pa97JPre1ptubmjycdyim/P8vvUHFS849FtWC1W54+vGRUi0dt1ijrfv9ktuCk7qMWsdOHDHV8gURjf7CJFxrGz58scEDoBBQ8NTw9nmxfJyXXaplYCabdOzvp0kfvA9mUwN5QSrOXpRdZRDJg+b7Bdc5ml9ZVGc9U5uNvxXa+ntEVMKYWNdZuJmTXg6O1WlvTtM3N3+P7TNk2DqVg1oI5SwrseLUjX4GdfwLPGrfM8TYoU837KHYWTQuoeTs+bSD/3gl862ooeHrwffY1tqLlOhwBikZ/Xv3xD9M/+jtfK0iTJ4P4WJtAHgQDcbClhDVc1GHJjSzoJZvr0f5SWt49gbf0LHV8oB/5SYe8HOX3nOzPnn7IcA6YDPMMjEAjD9/DcAk/lVIuLXA2+yuH3D8a8VIpGTHT5JPwPa5b36aZ6/OdOqZuREixJj/bhNXm0q3AAS8+1ixFJvB38JEHO3x8XkEyBAhDdGnjK333UNR0+PK43T/5djktWRBR39AWetdWnkjtBOLwtrgslykZLhgFgqMjj+C+k9hoiU2OF36pZSWt7p40vPSIad625Nirm8v4Zmo585UiiLp5zlTGbGnQxHDMdWvvONX3nQfam2mpR0c0MKwFGz54HWlDMM+w5CNPtOHwumUosEPEphpNUQaNnk0JSvUVXTX7aBV3di1uSLhnFlQDcBX1qzKnWC26ahccO+Fk1ePclafSKq7vJPbxCWd27mym1b38YGtrd9629NIjviPi9grHxguUtfpE6qun9aVPZh7cPL5Q7zz8Q76P9ODrrI761DJ2g92LiCcxDLPBajMyVKJMD8zveS7jj/IxmBRc0wOKyw8Zm1I/gZ+hXyzvj5BFr826YCoirE0JgD1GhFJNRwSrri65n4GHNPGprvz9UMt3AL8Xt0/gtYL5lyNa+rzt1uo17sHqTEPZUfW1+o/Sbn2Zpmte/j59nAcTd/VaIUyjUgirPQtMwT7+iBfsfPx2cNwuF1nBNRxQcwQSlbI8ia9umLVO8LgnxEW8BVSmxWDSScm1WlBO1Wal1t40otHE0PBF9NBVseqq0AjvIlzaOYlfjaiBX6njfkQ75GvbUZZUfp1mG+8SN04wt/xT23HgusqP3GptT1M4N3+P79Sxf5gfaeM0ylMJALQU2PFqR74CO/9EHuhhAc8av6aOWgFktkLnewIKERgYTNGMh8fX9XYjCrjVGEQRFj3oltlchyNA0QK7gzUzESE+1ZF/WjBFmdEunsvC5kNRGHRHnUNw1DXOQ58X0nV809n2XHmT2zBNbR/2JDV2jqPZ+jpN59B5mHupR0MMBP6xzLMJYQIcfwPyoaOL+pzmeJ61Ne65+TWQdC317ASiHQLq8IEkl87ySyIMmhg4BoODXhS48mhedE9KbgmnmnYiLLtCiqY68ueTCLsDpcgAGO2cSMt7eP9gQXZA0xBIve0BM0BTEj+Whtfj7KxwTGbTHT0fmpDDNuejtH2bT3oyN32PfRE38XMt9SSoeo77IBOZJ/g4XX0yxB2+NpjYRkAdPZDo4BNruNfA+w9y4AARg4pDyHbECSYrFXiR4wVXgC5fZhd3H63ipk1AmeAPIixuc4lnwyKXOv4RKX4xTGuLL0tyqzylq/ndLJU0IzStLzOqGWRr+zLI6IR5+Id8pw77Ovs0Y310RqeCyeDAxLZKBw5eR5kBuM6yhDcs4SziOtgXTJzSy8oQsnvY+skNaFOQsB6CaSDSg0E5XroLQLDqyu7cgcdUO4P4h06i9Ijv4O5yWt7Bt2rNN1GrfWHEP2tbfKopv80X7OP3mLi2nkfftL7IxmHr1pdpeublH9I38+dNfQoYBCysDwtLnjVL0MVXuMViASU6SYBjcIUlXxSbH673T26tBBR0FRi0Bpa7qotlIIRTXWigGK4hqKm68k+GDnbW08rufWM6Wz3ztrtWa/Bcw4tCaexo+rraj9pqfZmmb27+gSs3l3lHu1DAE045FZ9+1uzFO79oLb/wVBBhNFexALMXVUFFp//kIwL1HAHVUQHpbjm7rm9cAW9XeVrB31RYzmX9dsRh2BonJvVm++JTHb2adqK4JZ627sv3S1FwBri117a7KtxnIG8vjfDrGfntbZGnlR9rD0zIqOOwcGtrmh7y8+zOWobOA/UcKTvRATnCWvAgHhZbHrWjvMP1EkiF/Tt8lp0y2Y4zBNT04X4CPyWZn9+DJ00Gsh5QheHzlTnyZO3xWGLFHOy17kjRVFNA8NBJNKU47OMRosUtfMuSP9ODYnISVtso+RBIATsLWIOJ3NdXx7+C1uoeayOYdN5nsXgveVrfptmadB6OHEwy3gZDLx6eaxAjP3mFF4x2G0wkMUNN2uFjcE0IqOlDJ45vr/NHAxgs9MS9K7DjDN8DewhIV4kIdKDg2Bsr6KYjRVNNsuBJJ5F8e7sraXmb90tseSVhtY2SD4FkiGntKkpOHw9ANzHa/E3bWKbpmtaXqOswcGv/MDqGZCb5fvSlnluNwymYtWCyxfugSBuA+4KJalYxWJrGNnco76dY91E9ATV5iPuov4cd5pm+ndsXbO4TKnNO+lUb3onCqa40DwqqsIiLoxm4ILi/tYnPl+rPxZiuoDCAbjXIU3+3OdZuyIXOB2P7slPLH9uTJmTkOyzc9mWannn4J/nOCXts2YlODwTGIF4y6nCQbzchxMLatsyRN3hS9ZUNs8GBoQ7UIaAmD5dRB1jO5ufZs1bLTAAHH4aFZePJvSgqAQhWTS25+DUj8BAvPtXO3FtxS/zgi5NpCQ+4qphcEA6gsczblt5c02f2MZcbGOkD/BB0SbFAT9Mv2XtRt7an2ZiXf5K+expMMpynF1rwvMBoDsGUq6eLrbHCz+E5ddtgim2c5slDpSXWmHZHPLGykhaX9Mow9zYETAyenC8hqOWhlNJRh1WLRIrhGoKaqsk/dFXklvji7VP42jIvL7OVqJcS09pdrd1g4tMqN9a6HzxN0zfUl66dw7Va29O0zM0/YdLkH1ybV+M0D0FXMPgUzBKwIzwRkdYD+0zLojwy3XD1hUha28OP3e2tpkU+L0b3KY9+xmAiPmQoMGSeDMx4fHIVV3z8tMhY4DCoaJXGC8y28A6DTpahYjRnEJ/qKDM0Afe313G/dCImBhOLeono0xn1zw43pwWKr64hO2Lk80e647Za20N9md2H4+NsfZumeaLvmIDHmp3oDKeTik8ta/KmRrSIJ1F4gPyVW1vL8XrHmyRGBH/kqbn23sG7f9/fuJ3Of7aZNrfyRlaOJvBTnwfXkT/Y/SYmi96/VzMQLLSBQ6vEBTzf1xdPWIThIr20/w4JY3UH13dFhOjBLTxCtItfsS8SGbB2QAbQGOZtV/WU5Oh6QfMuhucWLzoVJdDqMVt9felIHK3R2juatq70xGAC68zfceqq7W9hnEpfOORh2NtNiBGDhM+ZMmAYOAwYxoQFHQQla3pCGyyx7G9spIvndtOZSwvpJC7UnWKpCqq++q0/Ln51GMYa/WxvnEMa5Fc2egImBk+FwYpAGnyTbCfoMm++HxOMDnd4vB3tg769fyItvPcbSJ6b+M7REjLEMj7/WcEu2zLaK2nP6/1FwKARR3iffFaTh23SBS8Ah11CmOT76VXfxQkinsHT1p9ujNJ/+jp+jQ80O3GQHa8xtr34wAvQJoLVPKD0ysygS1fvKE999JHF6kPqiToLHHTdhvK3MZtJYxHPEGx8Lh95GvkRb3C4a8A/fGlpxKBBP/MmA5jdDn/9UDDVWZbpo4lPNo25Hh788HZ6cNt/WBymWDisY0u+TIpH544oh5/AmzLL95/oZZnoYIj3SQXf9xbZVs7bHX2RRzCdIIwTZC4C9q9Z3N56KK188Gt42DIHCAMqB4sHjwdODiYGkgeZBZUCLgdSDr7VEjwKItZ7HkgKor6A+svHsMyxq2F2t3syiYPz0DX57wg8UF0Dxc/lvbRH3Sx9QUnzP/flEnnkxySYJ9d1jvj7Y+v4FUMGD4LmgEFDOn/5wXSIEQ2/xucAAo/ZwoqI4228QFnQNDRXQVLxT8HlNIpfeexEunvpcnrki0fyKaQboE8IKDdM6YHy5Cq2n0db1ifTRg9C8ES4vo4ZymxzgLyE6eWwXNXhvH38Hkh4PUza/vzX0urlBy3TMNvYHwLGslMTMJkWg8yDCAGnrJSzWs1GNaCGs5IC7MOTo/T2AzjZ3sVurROZu9+lCdfDA1INEDZQ7kVQUq8FBfXHvx6fOnTyDvAwM3Huix+gFba9jDYQCcgyoxVkdTxVMrIHriF0AJ0s5CXIgPGgYZYxFbJLOoMAtQWQ62+DRLQSWBDLvnngQa7QXIfpJYy/m+e+kvY+vZTOfnEW8Q0E7PUEFL2ZrXyT0gqgvoluNNqmMfdC/MJ18LTLjJOdM68n8ktvSruj1bT/4W+m5dsnEETISCWY2oBBkGkpV5Z9fVlJwdUNJgYLX6rSl40USKqffgwTgZPSu15rjLFw7LLgTh14OvjIPwcP7dAXljF9s+ih3Cx8gYe2ZJM/O3MTDfwfbSLL4LGDAwQNHu3H6cYfX2a5d5AnMOXwvSMLGMLKEA6a/5wX7AfM0S+bRo6zwOG9qNGdD5Xd47Fp+pxOFeTzvw4NfNA8SKPM1pmH00dXL6dHr+O3v/DinhBQ9Gy+coY3ero5oFfmGXQ4PD2QKq95XXS4LtM3AMsWVGztnUrL7/x6WtxHUCGQDjygdA/EJV3ONH6PZJnKl4OWjXKQWVbCb97mpSDvpRg8XNrFOgfTtIB6+/5R+ggZSicq120bzkN/929GHoiVyQr/rBxW15gctAlHxba0CjjROnW/3/tbeAHNHQTQFgIGPxvLoLEAoV687MTsEGaBvrKxQXUKJAWH0XGgXUx0CxzCnAusGfD8bzBvLyou00EwOg7kITkGFwNIFw2j8aC/SisyIJG+e/+D6YPVG+ncp3gCxyyQMGd5YnHD75/cInuRe4KOjOOMxg7Sg8A7GRY/L2sO+/KOLaK2bj2S1j44h4kfs5Iv9cpmQk9WMlrNTPleybOSbUzUICrLPL9nsmBCN2JQRZgB+P1OdvIT6MNSTxI6IBw7pJMpXG89g64+PdSvwLP6kHoan/Kp9swCu2zbE9l4xIqTkz/YuHcZH6twqcdCee1kcjLzJPYVkshHN8VHWfaNMpz8Vmcc0RZhpj/jzDdzKIuV8XWcTUUPVrNhxiibdSm4SgARj2J6jYcmAcD4/sbJ9PGjuzFDZeZZj08ub0Jz9wPdHEhuUR+i0ro8mAoHb1veEEj0cR/7nrufPJZWr5y2rFQCqmww1CAay1C+5GM2YxZT9soZinJtVmJ7wjIPXdQyj/UF/CTqlU2cYRt01XDa2n31EXg4GCVQOKtQBu2INrs9W/JgouXJzYBhZoAB3tug4rsFaT/jqB/tJfzZrMd5+gRzhPc6vcX9JY1yalZxk8o+AKTbZpuw94EywNkUA45k6z8RBoOB/01nxi2UoMyymV71KUiyvGcmsLLdS6NulIOl1cMFFPvwe3y5iHbY4O305R2sslcU5hkosPD0agC20aBcLncOcNnDlvgyPgvISzxmGu7kxYzTwCVwMl47fJ1gWmSW6wZT3M1rs9BYG7I7+Am7vzqPTnKZ5F0arnt42MUxuR6+w/JQfwlAnAbeu9jL+Bk0TCMePBYwMMLJx1nKoOGDvcw8hOkk/lvF2orjvLX/+V46uJ19L4GIpljzXECL8pZuMikjHDZahXuzloKLgUX9lGHgG+w+GYwD/xs9LAllw6KRdDARRzXGSyA3RCuBZUyVFu6hSOkW+lBLt3VmNb8h1rJS9jB7OgZDA3ERT+9anNHJ68FGw01WImpr93Rae5tb4gwM/CGI+BmTZRtr894IWceDqwNbZspZyfBlSUj+JWQqXExhPtbaGo/BE+GYmXYRRK8/PEo38BbYMmntRMDxsdpP2hg+8s7Bw8GB71akEw178QkChRPRnlIY4Z7G/tBGbRODcgwWzB4t1yyAqMx15QlEhBfZYE2mwpfpo21sOnxyF2hMch59kuYJaRhX1FTUo+DibNa0M3zlHcta5FMgGMzMknWVoCBCesCb6RlnPApM8YFkAUwWMkg/1aJpuhpa+XKO/AZbZjSAhw7FsE8s4kt5fOOfJr+0szZ21v5Hq4Mw1YPe8vQEEtXuXD2X1j/2LXHLJh5UFlD58yRlHC3nGDg58LS0qxsUeYnHTYjFJogQWHBr4jKPgYc/BReDiTIvnfdg8m5p0GuNngzS8lDkSyvgNkBaOd6YYDt5xC1bZhkPHAsitA+YcUyGNn0C2aQgDJwFEewYE45RP3HW9ppsLGza5PKGKuNFgzqhev8DrPM4IODNSyxOcC7JyEjb2R81qcbsgVRLbFDOi6uwFmCb9GyAvfim4DA6DpShfaokzHnnOMrlaQhfjU6E89FBo+NAfqKJI6PJ536J1v8bu1RmGlmjuKLcSOkfLt8Hsr+Plsi+oCBuDO+8Y3jn7Qkkqt9jNvoI90s37/NlHQMpbkJ4sPRlKFvqkZ8Bl/m0+2cBhWBql3nMUncxYDFgFDh9NZ+UYHkZwbTNDx9toA3VBEWgiWesrjx2oWaTgAUOJiFetGhXcAsY2LATm2V09a8nmz6A1hzC5T5dAAAPeUlEQVQNQbsq0Qc/2TbRhSefwTiwVmHT8EQwF+Vy8DGC6QsPHiDtdJNDvMRh0CdmLfJm17NNGwxXInw2V4/USz78t0lPPrOZcXSAKOFy8IBBtoAwX3ngf5PHwegZR7jNWku3rqZTF55NJ3/6dN89lJmsThISiopRHkd2wIjgjwha8D+DgTI8ZiXlenkif5QHf1N29pAN3zuflu/wfik/QmQZxwKKSzUPFguYmn06GQo8lrl8iacsxq+ia4nH4FFg7WEk+wKnDbDtcDnaweN6Pz2rjIBOoFv1z09KBwc6x4aft1jAoIK4jRnVMICI10m2WnramqqEy3Y17NmHSHOYbOYPDqzzIVeGr7hy1Tc+Z2141NcRAmn0SV7S2Y8twK9yRYdT2U8GH/3IbaNbG7I4D+YXyFZoR7AhQoOMajZ80JTlURX/bTxdn9kmTP9QmzwOBkOI/wOu3chYwM/sbH7wajr1yv9JG+9fwPnKOy/hHsodyG70H53lnH11kQFDiyisDfZ6ECYzeTzYCA9kJXJubX0lbbx3BhdnBk3OSrpfqgEDvDYcPEPlgPFA8wy1t8jPqGKGys/lKYhUjy3z4GJfcMVgoq8/OHcj7a4ic4O//PEEUrEFCmqOOWEu0QhzPAs/GgEuAQKWzGhAgf1UlHamVmxXRrLioi0Ykz2gy6QizgheBR6jFDnPSKK73MHP0EH2GXwxaLKBGly2O2iTmbz024NLk94vIG6FprNb6iLtkbcUcyC3jOYEwL1Zq9iB3Wze/MiuQEg6iOB/7/cKs9FrT6eTF57BQwRXi3UBc38O9XcX8J7vBc9OUwMJZoZ4JgQSPtVIu5fPp83L3BIPSzvPUDFgSoZqlnY14JjFfKPCM9Q+BofZJm4+2DIPS7c2C3XaGGS2FUxfHFxKl+48i78X0kcP/2FavvKNtL/2IMYfw8rAsbMSa8Kh8KTxhFndhXVNEq0E2JgM5aJOzg6VDMejUWRPbCFIiGJTdsViSOGFVBsCBEfvQ2wHkOOtD+yet4nX5DUc9RDn9DqZmV+g08cm990wstytKa/gomINgeEr61jWIp/G32AGddZVfAZiAauxzQ9fTadffSptoFY2qporFDJURU6CvrOMn3OxtQkdl/OerawjwtOzAdi87rdy9wDP1394Pq3d4lPiOSvl2uESHDkzGc2CKW9KKAvFLfS63Dv8Q64KrCsLH6dL2zmIbuy9yx5aOf3Wf03Xv7qSts4+4Zh5qnKqIaTZQPkIt+1KM2kfbuMSbDX4StthMBE1LUgyCzhd3mQ6cgWTRjfh7SUj8mCu16Vczj60B8jsaunHQNCSkCGTJ7gHE+YJ+Yoe28jwtrpPFwTLsNU8VP8MFB/QlrXIYu7QLmE2shiXq8tbV9PpN55Jp15/Ni1/MZ6NKN6WuQPq8SXeP8GwBQU98z96Mg02mdaF2t65ewJb4uexZGDw1EeISkCFe6EYMDWoFGR5aaelYP3wdjwr8X5JwTJUX0+X0ru7z6QP776QGES15ECwc7B3Oz3w5n9MG1d+lK799r/Ec2p4CcxcBWNaSheOLbLUdoUitgu3EpDh5deczgYJlrZdmjO+4LwZ5UxGcszGby9aLNQRkRBqM0mbpOZaQUTDCq4cbOAHi6ZKyRTEYSk5MWuBpwyOwT4+VBKHKrhmtmw+wyz47N7o4oV0/+vIRqgnZaOoRvDMAZX9GaVzlNB2uXpuvafTcpz1bPdJdIS6d24+lDbff7A8hzcWUFrSjWWosDHhGxQlgDqbEN1gYvBMesj1xsKV9LO9p9J7e99P1/bfpZso/WeFWPTYyvrnL6QzN15DUP2rtPPQ33JsT0UBLTcMZjv/5eGE1oIfglsdmLCNTG1X/UUvUDVIKJhNip4zQ+QxlnzgJDVbOCCY0h02GC6sc+kGF/oAZyxAfMDkG4dBNn9ZGxnLX1xLp996Jp3+GbPRNXVh7npqQLGvmkjfWsBLTjipFFA2IiRjEDU6sZ5wn2RqceAjRPuXcL/0+aZ/QFvvmX7RD7neWEQQHTyXfr73fPp0/3V3MY+A/B2qNSdIX7x7Mz144T/gSeQn0vW/9qdpxI8ZBkuedpk8yVakVbhCMhAxPTBOVZ7yDrCREWVS51nv+pxugUBUCSSXuwqGzxBQJSrIlO0quLqBRToKWJSllLWoO2epmrXIWPhoOywRTQ1lylKNF5RuUFvfNAzsC3m9LODW5b6LuDd643tp8+P5s5H0xLp8sFsG1anZbDVO9B8tnoZDPsJtELV4a0dT4/AuHiFaehf3S1v5w9e8g1cDKi/ruPzTxkJY0oXtcm1MlM0H3VNh2ZgzUd5MKJsQYfPhOjLRa6Pn0lv7z6dP7iqI6Gu37+Pej2MowdGxgsbmJ0+ltesX0rWv/Xm6c//XRempo60uHFv0qbYrNORr5qh8ZWL7KaSz2d8MlIxEDwNPdtiZWZHGchcAv+NkJoRkQzCZuhM8fxQQ6GC3Fg/4s2lDnLcN5yqLXfGVYAICgWSWGNhGZ921TW9YlreQjd5+FtkIO3WAj7PUDOVOsxo6QY9j69k+f1LPFTTKWBSdISuRbfvO6bTx9hmsUfnBag6iTkBp+eZb4fmD2YHPmSxwmvsmk8uBpC3xXI/SVWSiV9Nz6Y2D59PFUQginhc6F6atNec95EE0qaWdz9JDL//7dPvRv59ufvWfIrljDGnET3yGaztflzgZiKv42ha+pfHqLFqUb/mcB5UZKDKGKHZrcIGh5SGC/9/C9OFbgLyUgBXCxrHSOa7drEXGQKfbFjUGWLZhZI1lrZClqDGPJfg4phiEvo0MvCYnZ6M3n87ZiJ+j3oNSAwrKy85H6GO0eX6J90W4A9WZYy14xkBCl9Odq2fT5kVkOwxG3nBoAkrBZPdL4xkqbpuXjQdksQL3POTKIHpl4fvptYXn04cxiGIHcaLoX7kSRtosMM8n5Xt4T1z8H2n92k+Rrf4s7Z7+befI9nrYgaImlQzHIyltW5gsFeVdDyenOYcD/xO2NukZZ0jhnF7HQzzgvozMdIVLPdcNbxQsxFjPODeMLl/E3MNbFWWFEBle6tUlYfzA1aYipEu/YG7p1vV0+t2n0+l3jj8bZUe7xxJQnVPb9h8y30q4f7LPnxhUHBj8sZ4xkGiWjxCNPnw0bdzgG2O6wXQvHnK9sXgz/XTpB+nHC8+kny/8hC4MFHU4k7XMrhNpQEzorngJBY5SLMtbF9NDP/536fav/1G69Vt/guHDWBZucnYVDbe6lGhDOjJH5bOdNE1aP31ZDg3+7+BAsXamZYaMMz6und9BQLHIRBM8Ci6/RGXeIkDlKpOCC8qht5wHiGnqMRllH+kC/cSRjKzxWNbGpz9J97+DnbpP8LnRPcpG6kGsEVCdUIo0knKBn99ZfMCDx3vFnlnvuiJDrTt8hOjds2llh7dtC+UJ8f1jfsiVQfTy8g/SXy0iiBYvINFPSu3qYL/XUwNrsngcvmKAJ/fk+/89rV99KV39+p+nuycfs0nAOZEnC5QCzn8RJi62u7AmWpVtdLBpenFgzYO1nY8oFqJtYuamcIUXwMIbmDZcP7cFLmWlIvBMV77JwWXChX+cFzrZZQ8aas7jwYADAQOwvH05nXrvLzG+yEY7N+TEL7QOT6NNsAt/H+dXL/WB7hxZiVq3v3gAjxDh7TBcLeIRagZRfYQobkL4fVC4b9KGQ17O5eVfXdrlJyCuL26nl1aeSS8uPYN75GlBRI/yySM0SxkLrPnEi7U6tfAy0lvvpUd++G9xX/Un6fZv/gPMB2YrlWggwxFDrnFs5IgwedFugiQHFxSZU5ychL2mARY2C44MKJ8gM93w7FR6lknlWMy7jBFqcNVLuOgUEEzmymstngBzmC0UNlnjgHVO2vz0R+nke0+lzc8mrUIocO9LWfJNM3We7+XmM2hzFD5CdPfyOXQYT1egcNLonqkbUOGzJLsXGth8wL2Vnnq4htc//2j1hfSD5efSm0uvTchE5ewWz+frRRErO67zyVf7FXKdB3fSqbf+S9r4/MX0+Tf+LO1vPpxnCgzUSUfeKBnhflrmCHzRYcL6MwBNtcVnbRzUphk2sau38C7fFEwESpzkBZlJ5SjeoqwJFpOLhijQbSvL1TFhNvosnfrgf6cTHyEb3blezP2ygZkC6vcX8BIUXaZn9JiPEC18cD6t3+LLoXEOSjAxy8QMxa3tvG2uzFOffOBGQ81Kt/FCzefWfpi+v/J8en35jZ4gKmdvopfiiqdtokBDHJYXpRGY0ly59kY68+y/Tje/9k/S7d/4w8xN5zp/0O3t/GRBpXeXe5WvLBHJarI4sNaEdX0RVzKS8VUb5Fl4DTuU9owidaCou1FnQWaWchSvbBthUnBJQI5gbYMV0uZlZKMP8YT3568U1b9KwEwB9Z3Rg3P5rEeIFnnzijKybfGwtJvjIVcG0QvrL6XnVl5Jr6xcwEcffFWOigZd7flqSeuUzSfN+ZQ1HFY+2lvc30n3X/jPaf3yS+naN/552tv4CshZv/xUO8tVbBcftbqPjCY66Y52M5KQTvcmtdTgwg+Sf7ycFr6oy9JovRND82QtXgnMXtbWzUTVkeXtT9Opj76bTnz8vbT0K5SNOEZtmSmgHl/krly8NLVqcpvDcgePEG3gESIVPu3Q+XyJ90cMsLFHiID3D2Rv49vAz63/JD27+mr68errTRBRc+d0ytSha2mrp3CaKklkPrVmlx/Wv/7Zy+nM0/8mXf2df5G2z+PRpc5GBORoRIZIKyXD8WikyE9ECa6spBtcrqzw5PbCDp7Te6++n93UOCur6EWnMXNwqUNUhqwFOXvC+7MX04mL3+1mo8AaXPiVAWcKqEf5teYp5QAv+dv75Dw6j7chedGjQ6rz/RMDp94LaUl3C28JfXb9Qnp643VsMPwMnxeGTFTOWAFk4vB1T5ekvYfkdsTRb1bUXnkRKdrLUHUu3t1KD/3oL9L2uW+ma7/7p2lv7UQhKitKx0zLPbMJo7QbbavtE79mpMCGD+0XX8dSzwyFTgQ9AgM1+yuEMQxydXiX8UH4yYv/C9noqbS0294bQaF0djqSVfwqHKcG1O8v3J+W+fnThHI3PEIkthhEEc5ZKGejW1hBfG/jzfS9zTexwfBON4ikqI5gwRwLoBOj8xyUdklqBYYpoCRMtRpRhrgeu5GF8MalF9PKtXcQVP8MwfU7gRyVRpgstW3B12YbshRccIJgaIpn8SNkpm0t9cQAGzIjVCMuMs0VXsIevARFUDa67+Pvps0rL2fS2LGj0WWD8TH+Xw7i/wJ/UGGCbHpuVgAAAABJRU5ErkJggg==;" vertex="1" parent="1">
          <mxGeometry x="250" y="402" width="89.69" height="88" as="geometry" />
        </mxCell>
        <mxCell id="6_kh7ZPEecX23Z2gqXca-7" value="CLI命令行工具" style="text;html=1;strokeColor=none;fillColor=none;align=center;verticalAlign=middle;whiteSpace=wrap;rounded=0;" vertex="1" parent="1">
          <mxGeometry x="252.27" y="295.07" width="85.15" height="30" as="geometry" />
        </mxCell>
        <mxCell id="6_kh7ZPEecX23Z2gqXca-8" value="IDE集成开发环境" style="text;html=1;strokeColor=none;fillColor=none;align=center;verticalAlign=middle;whiteSpace=wrap;rounded=0;" vertex="1" parent="1">
          <mxGeometry x="244.85" y="490" width="100" height="30" as="geometry" />
        </mxCell>
        <mxCell id="6_kh7ZPEecX23Z2gqXca-9" value="" style="shape=image;verticalLabelPosition=bottom;labelBackgroundColor=default;verticalAlign=top;aspect=fixed;imageAspect=0;image=data:image/svg+xml,PHN2ZyB4bWxuczp4bGluaz0iaHR0cDovL3d3dy53My5vcmcvMTk5OS94bGluayIgeG1sbnM9Imh0dHA6Ly93d3cudzMub3JnLzIwMDAvc3ZnIiBoZWlnaHQ9IjIwMCIgd2lkdGg9IjIwMCIgdmVyc2lvbj0iMS4xIiB2aWV3Qm94PSIwIDAgMTAyNCAxMDI0IiBjbGFzcz0iaWNvbiI+PHBhdGggZmlsbD0iIzAwNjU2OSIgZD0iTTc2NS4zODA3NDQ1MyA3MzkuOTkzMTkwNGMwIDgwLjE3ODkyNjkzLTYzLjE4ODcxODkzIDE0NS4yMzEwNTI4LTE0MS4wODQ4MDg1MyAxNDUuMjMxMDUyOEgyMTYuNzE4ODEzODdjLTc3Ljg4NTE2NjkzIDAtMTQxLjA3OTM0NzItNjUuMDUxMDMzNi0xNDEuMDc5MzQ3Mi0xNDUuMjMxMDUyOFYzMjAuNDU2ODQwNTNjMC04MC4xNzg5MjY5MyA2My4xOTQxODAyNy0xNDUuMjI5OTYwNTMgMTQxLjA3OTM0NzItMTQ1LjIyOTk2MDUzaDQwNy41NzYwMjk4NmMxOS42MDA3MjUzMyAwIDM5LjE5MTYyMDI3IDQuMDM1OTI1MzMgNTcuMzE3Nzg1NiAxMi42MDQ3NTczMyA0LjQwMTgzNDY3IDIuMDIwNjkzMzMgNy44NDI0NzQ2NyA2LjU1OTA2MTMzIDguODIwMDUzMzQgMTEuNTk5ODcyIDAuOTc3NTc4NjcgNS41NDMyNTMzMy0wLjQ5MTUyIDEwLjU4OTUyNTMzLTQuNDE4MjE4NjcgMTQuNjE5OTg5MzRsLTIzLjk5NzA5ODY3IDI0LjcxMjUzMzMzYy00LjQwNzI5NiA0LjUzODM2OC0xMC4yODkxNTIgNi4wNTExNTczMy0xNS42NzQwMjY2NiA0LjAzNTkyNTMzLTcuMzUwOTU0NjctMi4wMjA2OTMzMy0xNC43MDE5MDkzMy0zLjAzMTA0LTIyLjA0NzQwMjY3LTMuMDMxMDRIMjE2LjcxODgxMzg3Yy00My4xMDczOTYyNyAwLTc4LjM3NjY4NjkzIDM2LjMxMzQ5NzYtNzguMzc2Njg2OTQgODAuNjg2ODMwOTR2NDE5LjU0MTgxMTJjMCA0NC4zNzQ0MjU2IDM1LjI3MDM4MjkzIDgwLjY3NTkwODI3IDc4LjM3NjY4Njk0IDgwLjY3NTkwODI2aDQwNy41NzYwMjk4NmM0My4xMTI4NTc2IDAgNzguMzgyMTQ4MjctMzYuMzAyNTc0OTMgNzguMzgyMTQ4MjctODAuNjc1OTA4MjZ2LTYzLjUzODI0NDI3YzAtNC4wMzU5MjUzMyAxLjQ2OTA5ODY3LTguMDY2Mzg5MzMgNC40MDcyOTYtMTEuMDkxOTY4bDMxLjM0OTE0NTYtMzIuMjcyMTEwOTNjNC44OTg4MTYtNS4wNDA4MTA2NyAxMS4yNjY3MzA2Ny02LjA1NjYxODY3IDE3LjE0ODU4NjY3LTMuNTMzNDgyNjcgNS44NzYzOTQ2NyAyLjUyMzEzNiA5Ljc5NzYzMiA4LjA2NjM4OTMzIDkuNzk3NjMyIDE0LjYyNTQ1MDY3djk1LjgwNTk4NjEzeiBtOTQuMDU2MTc0OTQtMzIyLjcyNzY2MjkzTDUzMC4yNDQxMzAxMyA3NTYuMTMxNDMwNEgzODkuMTU4MjI5MzNWNjEwLjkwMTQ2OTg3bDMyOS4xODg0MjAyNy0zMzguODYwNDQxNiAxNDEuMDkwMjY5ODcgMTQ1LjIyNDQ5OTJ6IG0tMjkxLjk2Mjg4IDIzMS45NTgxMTg0bC03NC40NjA5MTA5NC03Ni42Mzk5ODI5NC01Ni44MjYyNjU2IDU4LjQ5NzQzMzZ2MjguMjM1MDkzMzRoNDcuMDIzMTcyMjd2NDguNDA0ODg5NmgyNy40Mzc3Mzg2N2w1Ni44MjYyNjU2LTU4LjQ5NzQzMzZ6IG0xNDIuNTQ5NTM4MTMtMzA0LjA2NTE5NDY3TDUzOC41NjcyMDIxMyA1MjEuNjUwMTc2Yy00LjQwNzI5NiA0LjUzODM2OC00Ljg5MzM1NDY3IDEyLjEwMjMxNDY3LTAuNDg2MDU4NjYgMTYuNjQwNjgyNjdzMTEuNzU4MjUwNjcgNC4wMzU5MjUzMyAxNi4xNjAwODUzMy0wLjUwMjQ0MjY3bDE3MS40NTYzNzU0Ny0xNzYuNDkxNzI0OGM0LjQwNzI5Ni00LjUzODM2OCA0LjkwNDI3NzMzLTEyLjEwMjMxNDY3IDAuNDk2OTgxMzMtMTYuNjQwNjgyNjctNC40MTI3NTczMy00LjUzODM2OC0xMS43NTgyNTA2Ny00LjAzMDQ2NC0xNi4xNzEwMDggMC41MDI0NDI2N3ogbTE4MC43NjI0ODc0NyAzOS44MzYwNTc2TDc0OS43MDY3MTc4NyAyMzkuNzY4OTE3MzNsNDUuMDY4MDE0OTMtNDYuMzg5NjU3NmMxOC4xMjYxNjUzMy0xOC42NjEzNzYgNDguNDk3NzMyMjctMTguNjYxMzc2IDY2LjYyMzg5NzYgMGw3NC40NTU0NDk2IDc2LjY0NTQ0NDI3YzE4LjEzMTYyNjY3IDE4LjY2MTM3NiAxOC4xMzE2MjY2NyA0OS45MjMxNDAyNyAwIDY4LjU3OTA1NDkzbC00NS4wNjgwMTQ5MyA0Ni4zOTA3NDk4N3ogbTAgMCIvPjwvc3ZnPg==;" vertex="1" parent="1">
          <mxGeometry x="244.85" y="600" width="110" height="110" as="geometry" />
        </mxCell>
        <mxCell id="6_kh7ZPEecX23Z2gqXca-10" value="未来衍生应用" style="text;html=1;strokeColor=none;fillColor=none;align=center;verticalAlign=middle;whiteSpace=wrap;rounded=0;" vertex="1" parent="1">
          <mxGeometry x="254.67999999999998" y="690" width="85.15" height="30" as="geometry" />
        </mxCell>
        <mxCell id="6_kh7ZPEecX23Z2gqXca-11" value="" style="rounded=1;whiteSpace=wrap;html=1;direction=south;dashed=1;fillColor=none;" vertex="1" parent="1">
          <mxGeometry x="240" y="180" width="110" height="540" as="geometry" />
        </mxCell>
        <mxCell id="6_kh7ZPEecX23Z2gqXca-13" value="" style="shape=flexArrow;endArrow=classic;startArrow=classic;html=1;rounded=0;" edge="1" parent="1">
          <mxGeometry width="100" height="100" relative="1" as="geometry">
            <mxPoint x="354.85" y="444.5" as="sourcePoint" />
            <mxPoint x="434.85" y="444.5" as="targetPoint" />
          </mxGeometry>
        </mxCell>
        <mxCell id="6_kh7ZPEecX23Z2gqXca-14" value="" style="rounded=1;whiteSpace=wrap;html=1;fillColor=none;direction=south;" vertex="1" parent="1">
          <mxGeometry x="440" y="180" width="100" height="540" as="geometry" />
        </mxCell>
        <mxCell id="6_kh7ZPEecX23Z2gqXca-15" value="当前代码" style="ellipse;whiteSpace=wrap;html=1;fillColor=none;" vertex="1" parent="1">
          <mxGeometry x="440" y="200" width="100" height="67.53" as="geometry" />
        </mxCell>
        <mxCell id="6_kh7ZPEecX23Z2gqXca-16" value="相关代码" style="ellipse;whiteSpace=wrap;html=1;fillColor=none;" vertex="1" parent="1">
          <mxGeometry x="440" y="290" width="100" height="67.53" as="geometry" />
        </mxCell>
        <mxCell id="6_kh7ZPEecX23Z2gqXca-17" value="相关配置内容" style="ellipse;whiteSpace=wrap;html=1;fillColor=none;" vertex="1" parent="1">
          <mxGeometry x="440" y="400" width="100" height="67.53" as="geometry" />
        </mxCell>
        <mxCell id="6_kh7ZPEecX23Z2gqXca-18" value="相关项目信息" style="ellipse;whiteSpace=wrap;html=1;fillColor=none;" vertex="1" parent="1">
          <mxGeometry x="440" y="510" width="100" height="67.53" as="geometry" />
        </mxCell>
        <mxCell id="6_kh7ZPEecX23Z2gqXca-19" value="注释" style="ellipse;whiteSpace=wrap;html=1;fillColor=none;" vertex="1" parent="1">
          <mxGeometry x="440" y="610" width="100" height="67.53" as="geometry" />
        </mxCell>
        <mxCell id="6_kh7ZPEecX23Z2gqXca-20" value="" style="shape=image;verticalLabelPosition=bottom;labelBackgroundColor=default;verticalAlign=top;aspect=fixed;imageAspect=0;image=data:image/svg+xml,PHN2ZyB4bWxuczp4bGluaz0iaHR0cDovL3d3dy53My5vcmcvMTk5OS94bGluayIgeG1sbnM9Imh0dHA6Ly93d3cudzMub3JnLzIwMDAvc3ZnIiBoZWlnaHQ9IjIwMCIgd2lkdGg9IjIwMCIgdmVyc2lvbj0iMS4xIiB2aWV3Qm94PSIwIDAgMTAyNCAxMDI0IiBjbGFzcz0iaWNvbiI+PHBhdGggZmlsbD0iIzAwMDAwMCIgZD0iTTU0NCA3ODkuMzMzMzMzaDEwNS4xNzMzMzNhMTAuNjY2NjY3IDEwLjY2NjY2NyAwIDAgMCAxMC42NjY2NjctMTAuNjY2NjY2di0wLjM2MjY2N2wtMy4yMzItOTQuMzA0YTMyIDMyIDAgMCAxIDE0LjI5MzMzMy0yNy43NjUzMzNDNzUwLjkzMzMzMyA2MDMuMTg5MzMzIDgwMCA1MTMuNzkyIDgwMCA0MTZjMC0xNTkuMDYxMzMzLTEyOC45Mzg2NjctMjg4LTI4OC0yODhTMjI0IDI1Ni45Mzg2NjcgMjI0IDQxNmMwIDk3LjgxMzMzMyA0OS4wOTg2NjcgMTg3LjIzMiAxMjkuMTQxMzMzIDI0MC4yNjY2NjdhMzIgMzIgMCAwIDEgMTQuMzE0NjY3IDI1LjU3ODY2NmwzLjMzODY2NyA5Ny4xODRhMTAuNjY2NjY3IDEwLjY2NjY2NyAwIDAgMCAxMC42NjY2NjYgMTAuMzA0SDQ4MFY1NzIuNjkzMzMzbC03Ni42NC04MS40MjkzMzNhMzIgMzIgMCAwIDEgNDYuNjEzMzMzLTQzLjg2MTMzM2w2My4zNiA2Ny4zMjggNzIuNjkzMzM0LTY4LjY2MTMzNGEzMiAzMiAwIDAgMSA0My45NDY2NjYgNDYuNTI4TDU0NCA1NzMuNzkyVjc4OS4zMzMzMzN6IG0zMjAtMzczLjMzMzMzM2EzNTEuNTMwNjY3IDM1MS41MzA2NjcgMCAwIDEtMTQyLjgyNjY2NyAyODMuMTQ2NjY3bDIuNjM0NjY3IDc2Ljk2QTc0LjY2NjY2NyA3NC42NjY2NjcgMCAwIDEgNjQ5LjE3MzMzMyA4NTMuMzMzMzMzaC0yNjcuNzMzMzMzYTc0LjY2NjY2NyA3NC42NjY2NjcgMCAwIDEtNzQuNjI0LTcyLjEwNjY2NmwtMi43ODQtODEuMTk0NjY3QTM1MS41NDEzMzMgMzUxLjU0MTMzMyAwIDAgMSAxNjAgNDE2QzE2MCAyMjEuNiAzMTcuNiA2NCA1MTIgNjRzMzUyIDE1Ny42IDM1MiAzNTJ6TTQxNiA5NjBhMzIgMzIgMCAwIDEgMC02NGgxOTJhMzIgMzIgMCAwIDEgMCA2NEg0MTZ6Ii8+PC9zdmc+;" vertex="1" parent="1">
          <mxGeometry x="620" y="361" width="170" height="170" as="geometry" />
        </mxCell>
        <mxCell id="6_kh7ZPEecX23Z2gqXca-21" value="根据上下文构建prompts" style="text;html=1;strokeColor=none;fillColor=none;align=center;verticalAlign=middle;whiteSpace=wrap;rounded=0;" vertex="1" parent="1">
          <mxGeometry x="670" y="531" width="70" height="30" as="geometry" />
        </mxCell>
        <mxCell id="6_kh7ZPEecX23Z2gqXca-22" value="" style="shape=flexArrow;endArrow=classic;startArrow=classic;html=1;rounded=0;" edge="1" parent="1">
          <mxGeometry width="100" height="100" relative="1" as="geometry">
            <mxPoint x="560" y="444.5" as="sourcePoint" />
            <mxPoint x="640" y="444.5" as="targetPoint" />
          </mxGeometry>
        </mxCell>
        <mxCell id="6_kh7ZPEecX23Z2gqXca-23" value="" style="rounded=1;whiteSpace=wrap;html=1;fillColor=none;direction=south;" vertex="1" parent="1">
          <mxGeometry x="880" y="311.89" width="180" height="258.11" as="geometry" />
        </mxCell>
        <mxCell id="6_kh7ZPEecX23Z2gqXca-24" value="" style="shape=image;verticalLabelPosition=bottom;labelBackgroundColor=default;verticalAlign=top;aspect=fixed;imageAspect=0;image=data:image/svg+xml,PHN2ZyB4bWxuczp4bGluaz0iaHR0cDovL3d3dy53My5vcmcvMTk5OS94bGluayIgeG1sbnM9Imh0dHA6Ly93d3cudzMub3JnLzIwMDAvc3ZnIiBoZWlnaHQ9IjIwMCIgd2lkdGg9IjIwMC4zOTA2MjUiIHZlcnNpb249IjEuMSIgdmlld0JveD0iMCAwIDEwMjYgMTAyNCIgY2xhc3M9Imljb24iPjxwYXRoIGQ9Ik0zNzEuNzMyODE3IDk0LjE3MjMxNHEyNS43NzM0NzUgMCA0NC4xMTIyOTQgMTcuODQzMTc1dDE4LjMzODgxOSA0My42MTY2NTFsMCAyNDcuODIxODc4cTAgMjUuNzczNDc1LTE4LjMzODgxOSA0NC4xMTIyOTR0LTQ0LjExMjI5NCAxOC4zMzg4MTlsLTI0Ny44MjE4NzggMHEtMjUuNzczNDc1IDAtNDMuNjE2NjUxLTE4LjMzODgxOXQtMTcuODQzMTc1LTQ0LjExMjI5NGwwLTI0Ny44MjE4NzhxMC0yNS43NzM0NzUgMTcuODQzMTc1LTQzLjYxNjY1MXQ0My42MTY2NTEtMTcuODQzMTc1bDI0Ny44MjE4NzggMHpNMzcxLjczMjgxNyA1ODkuODE2MDdxMjUuNzczNDc1IDAgNDQuMTEyMjk0IDE3Ljg0MzE3NXQxOC4zMzg4MTkgNDMuNjE2NjUxbDAgMjQ4LjgxMzE2NnEwIDI1Ljc3MzQ3NS0xOC4zMzg4MTkgNDMuNjE2NjUxdC00NC4xMTIyOTQgMTcuODQzMTc1bC0yNDcuODIxODc4IDBxLTI1Ljc3MzQ3NSAwLTQzLjYxNjY1MS0xNy44NDMxNzV0LTE3Ljg0MzE3NS00My42MTY2NTFsMC0yNDguODEzMTY2cTAtMjUuNzczNDc1IDE3Ljg0MzE3NS00My42MTY2NTF0NDMuNjE2NjUxLTE3Ljg0MzE3NWwyNDcuODIxODc4IDB6TTg2OC4zNjc4NjEgNTg5LjgxNjA3cTI1Ljc3MzQ3NSAwIDQzLjYxNjY1MSAxNy44NDMxNzV0MTcuODQzMTc1IDQzLjYxNjY1MWwwIDI0OC44MTMxNjZxMCAyNS43NzM0NzUtMTcuODQzMTc1IDQzLjYxNjY1MXQtNDMuNjE2NjUxIDE3Ljg0MzE3NWwtMjQ3LjgyMTg3OCAwcS0yNS43NzM0NzUgMC00NC4xMTIyOTQtMTcuODQzMTc1dC0xOC4zMzg4MTktNDMuNjE2NjUxbDAtMjQ4LjgxMzE2NnEwLTI1Ljc3MzQ3NSAxOC4zMzg4MTktNDMuNjE2NjUxdDQ0LjExMjI5NC0xNy44NDMxNzVsMjQ3LjgyMTg3OCAwek0xMDA2LjE1NjgyNSAyMDMuMjEzOTRxMTkuODI1NzUgMTkuODI1NzUgMTkuODI1NzUgNDYuNTkwNTEzdC0xOS44MjU3NSA0NS41OTkyMjZsLTE4NC4zNzk0NzcgMTg0LjM3OTQ3N3EtMTkuODI1NzUgMTkuODI1NzUtNDYuMDk0ODY5IDE5LjgyNTc1dC00Ni4wOTQ4NjktMTkuODI1NzVsLTE4NC4zNzk0NzctMTg0LjM3OTQ3N3EtMTguODM0NDYzLTE4LjgzNDQ2My0xOC44MzQ0NjMtNDUuNTk5MjI2dDE4LjgzNDQ2My00Ni41OTA1MTNsMTg0LjM3OTQ3Ny0xODQuMzc5NDc3cTE5LjgyNTc1LTE4LjgzNDQ2MyA0Ni4wOTQ4NjktMTguODM0NDYzdDQ2LjA5NDg2OSAxOC44MzQ0NjN6Ii8+PC9zdmc+;" vertex="1" parent="1">
          <mxGeometry x="540" y="780" width="120" height="120" as="geometry" />
        </mxCell>
        <mxCell id="6_kh7ZPEecX23Z2gqXca-26" value="" style="shape=flexArrow;endArrow=classic;startArrow=classic;html=1;rounded=0;exitX=0.5;exitY=0;exitDx=0;exitDy=0;" edge="1" parent="1" source="6_kh7ZPEecX23Z2gqXca-24">
          <mxGeometry width="100" height="100" relative="1" as="geometry">
            <mxPoint x="590" y="820" as="sourcePoint" />
            <mxPoint x="600" y="460" as="targetPoint" />
          </mxGeometry>
        </mxCell>
        <mxCell id="6_kh7ZPEecX23Z2gqXca-27" value="交互式编程" style="text;html=1;strokeColor=none;fillColor=none;align=center;verticalAlign=middle;whiteSpace=wrap;rounded=0;" vertex="1" parent="1">
          <mxGeometry x="570" y="402" width="67.42" height="30" as="geometry" />
        </mxCell>
        <mxCell id="6_kh7ZPEecX23Z2gqXca-28" value="新应用" style="text;html=1;strokeColor=none;fillColor=none;align=center;verticalAlign=middle;whiteSpace=wrap;rounded=0;" vertex="1" parent="1">
          <mxGeometry x="570" y="890" width="60" height="30" as="geometry" />
        </mxCell>
        <mxCell id="6_kh7ZPEecX23Z2gqXca-29" value="&lt;font style=&quot;font-size: 16px;&quot;&gt;THCodeX&lt;span style=&quot;white-space: pre;&quot;&gt;&#x9;&lt;/span&gt;&lt;/font&gt;" style="text;html=1;strokeColor=none;fillColor=none;align=center;verticalAlign=middle;whiteSpace=wrap;rounded=0;" vertex="1" parent="1">
          <mxGeometry x="920" y="331" width="60" height="30" as="geometry" />
        </mxCell>
        <mxCell id="6_kh7ZPEecX23Z2gqXca-38" style="edgeStyle=orthogonalEdgeStyle;rounded=0;orthogonalLoop=1;jettySize=auto;html=1;exitX=0;exitY=0.5;exitDx=0;exitDy=0;entryX=0;entryY=0.5;entryDx=0;entryDy=0;" edge="1" parent="1" source="6_kh7ZPEecX23Z2gqXca-30" target="6_kh7ZPEecX23Z2gqXca-37">
          <mxGeometry relative="1" as="geometry" />
        </mxCell>
        <mxCell id="6_kh7ZPEecX23Z2gqXca-30" value="个性化构件" style="rounded=1;whiteSpace=wrap;html=1;fillColor=#fad7ac;strokeColor=#b46504;" vertex="1" parent="1">
          <mxGeometry x="920" y="380" width="110" height="40" as="geometry" />
        </mxCell>
        <mxCell id="6_kh7ZPEecX23Z2gqXca-31" value="获取标准化构件" style="rounded=1;whiteSpace=wrap;html=1;fillColor=#fad7ac;strokeColor=#b46504;" vertex="1" parent="1">
          <mxGeometry x="920" y="475" width="110" height="40" as="geometry" />
        </mxCell>
        <mxCell id="6_kh7ZPEecX23Z2gqXca-33" value="" style="shape=flexArrow;endArrow=classic;html=1;rounded=0;entryX=0.5;entryY=1;entryDx=0;entryDy=0;exitX=0.5;exitY=0;exitDx=0;exitDy=0;fillColor=#60a917;strokeColor=#2D7600;" edge="1" parent="1" source="6_kh7ZPEecX23Z2gqXca-31" target="6_kh7ZPEecX23Z2gqXca-30">
          <mxGeometry width="50" height="50" relative="1" as="geometry">
            <mxPoint x="960" y="470" as="sourcePoint" />
            <mxPoint x="990" y="430" as="targetPoint" />
          </mxGeometry>
        </mxCell>
        <mxCell id="6_kh7ZPEecX23Z2gqXca-34" style="edgeStyle=orthogonalEdgeStyle;rounded=0;orthogonalLoop=1;jettySize=auto;html=1;exitX=1;exitY=0.5;exitDx=0;exitDy=0;" edge="1" parent="1" source="6_kh7ZPEecX23Z2gqXca-23" target="6_kh7ZPEecX23Z2gqXca-23">
          <mxGeometry relative="1" as="geometry" />
        </mxCell>
        <mxCell id="6_kh7ZPEecX23Z2gqXca-51" style="edgeStyle=orthogonalEdgeStyle;rounded=0;orthogonalLoop=1;jettySize=auto;html=1;exitX=1;exitY=0.5;exitDx=0;exitDy=0;endArrow=none;endFill=0;strokeColor=#99FFCC;" edge="1" parent="1" source="6_kh7ZPEecX23Z2gqXca-35">
          <mxGeometry relative="1" as="geometry">
            <mxPoint x="1100" y="490" as="targetPoint" />
          </mxGeometry>
        </mxCell>
        <mxCell id="6_kh7ZPEecX23Z2gqXca-35" value="" style="rounded=1;whiteSpace=wrap;html=1;fillColor=none;" vertex="1" parent="1">
          <mxGeometry x="880" y="630" width="180" height="140" as="geometry" />
        </mxCell>
        <mxCell id="6_kh7ZPEecX23Z2gqXca-36" value="&lt;font style=&quot;font-size: 16px;&quot;&gt;盘古标准化构件库&lt;/font&gt;" style="text;html=1;strokeColor=none;fillColor=none;align=center;verticalAlign=middle;whiteSpace=wrap;rounded=0;" vertex="1" parent="1">
          <mxGeometry x="905" y="650" width="130" height="40" as="geometry" />
        </mxCell>
        <mxCell id="6_kh7ZPEecX23Z2gqXca-37" value="盘古标准化构件" style="rounded=1;whiteSpace=wrap;html=1;fillColor=#fad7ac;strokeColor=#b46504;" vertex="1" parent="1">
          <mxGeometry x="910" y="690" width="120" height="60" as="geometry" />
        </mxCell>
        <mxCell id="6_kh7ZPEecX23Z2gqXca-39" value="回补" style="text;html=1;strokeColor=none;fillColor=none;align=center;verticalAlign=middle;whiteSpace=wrap;rounded=0;" vertex="1" parent="1">
          <mxGeometry x="860" y="590" width="60" height="30" as="geometry" />
        </mxCell>
        <mxCell id="6_kh7ZPEecX23Z2gqXca-46" style="edgeStyle=orthogonalEdgeStyle;rounded=0;orthogonalLoop=1;jettySize=auto;html=1;exitX=0;exitY=0.75;exitDx=0;exitDy=0;entryX=1;entryY=0.5;entryDx=0;entryDy=0;strokeColor=#99FFCC;" edge="1" parent="1" source="6_kh7ZPEecX23Z2gqXca-41" target="6_kh7ZPEecX23Z2gqXca-31">
          <mxGeometry relative="1" as="geometry">
            <Array as="points">
              <mxPoint x="1140" y="495" />
            </Array>
          </mxGeometry>
        </mxCell>
        <mxCell id="6_kh7ZPEecX23Z2gqXca-41" value="" style="rounded=1;whiteSpace=wrap;html=1;fillColor=none;" vertex="1" parent="1">
          <mxGeometry x="1140" y="351" width="170" height="190" as="geometry" />
        </mxCell>
        <mxCell id="6_kh7ZPEecX23Z2gqXca-42" value="&lt;font style=&quot;font-size: 16px;&quot;&gt;行业标准化构件库&lt;/font&gt;" style="text;html=1;strokeColor=none;fillColor=none;align=center;verticalAlign=middle;whiteSpace=wrap;rounded=0;" vertex="1" parent="1">
          <mxGeometry x="1155" y="370" width="140" height="30" as="geometry" />
        </mxCell>
        <mxCell id="6_kh7ZPEecX23Z2gqXca-44" style="edgeStyle=orthogonalEdgeStyle;rounded=0;orthogonalLoop=1;jettySize=auto;html=1;exitX=0.5;exitY=1;exitDx=0;exitDy=0;entryX=1;entryY=0.5;entryDx=0;entryDy=0;" edge="1" parent="1" source="6_kh7ZPEecX23Z2gqXca-43" target="6_kh7ZPEecX23Z2gqXca-37">
          <mxGeometry relative="1" as="geometry" />
        </mxCell>
        <mxCell id="6_kh7ZPEecX23Z2gqXca-43" value="行业标准化构件" style="rounded=1;whiteSpace=wrap;html=1;fillColor=#fad7ac;strokeColor=#b46504;" vertex="1" parent="1">
          <mxGeometry x="1165" y="432" width="120" height="60" as="geometry" />
        </mxCell>
        <mxCell id="6_kh7ZPEecX23Z2gqXca-45" value="回补" style="text;html=1;strokeColor=none;fillColor=none;align=center;verticalAlign=middle;whiteSpace=wrap;rounded=0;" vertex="1" parent="1">
          <mxGeometry x="1180" y="690" width="60" height="30" as="geometry" />
        </mxCell>
        <mxCell id="6_kh7ZPEecX23Z2gqXca-52" value="检索" style="text;html=1;strokeColor=none;fillColor=none;align=center;verticalAlign=middle;whiteSpace=wrap;rounded=0;" vertex="1" parent="1">
          <mxGeometry x="1070" y="467.53" width="60" height="30" as="geometry" />
        </mxCell>
        <mxCell id="6_kh7ZPEecX23Z2gqXca-53" value="" style="shape=flexArrow;endArrow=classic;startArrow=classic;html=1;rounded=0;" edge="1" parent="1">
          <mxGeometry width="100" height="100" relative="1" as="geometry">
            <mxPoint x="780" y="445.5" as="sourcePoint" />
            <mxPoint x="860" y="445.5" as="targetPoint" />
          </mxGeometry>
        </mxCell>
      </root>
    </mxGraphModel>
  </diagram>
</mxfile>
